<?xml version="1.0" encoding="UTF-8"?>
<svg id="assembly" xmlns="http://www.w3.org/2000/svg" xmlns:svg="http://www.w3.org/2000/svg" version="1.1" viewBox="0 0 300 300">
  <!-- Generator: Adobe Illustrator 30.1.0, SVG Export Plug-In . SVG Version: 2.1.1 Build 136)  -->
  <defs>
    <style>
      .st0, .st1 {
        fill: none;
      }

      .st0, .st1, .st2, .st3, .st4, .st5 {
        stroke: #000;
      }

      .st0, .st2, .st3, .st5 {
        stroke-width: .5px;
      }

      .st1, .st4 {
        stroke-width: 1.1px;
      }

      .st2 {
        fill: #00e571;
      }

      .st3 {
        fill: #5eff82;
      }

      .st4, .st5 {
        fill: #fff;
      }
    </style>
  </defs>
  <g id="Layer_2">
    <rect class="st3" x="5.4" y="2.9" width="292.2" height="295.2"/>
    <g>
      <rect class="st2" x="17.9" y="10.8" width="24.2" height="211.1"/>
      <g>
        <circle class="st5" cx="30.2" cy="207.9" r="4.8"/>
        <line class="st0" x1="26.9" y1="204.7" x2="33.6" y2="211.4"/>
      </g>
      <g>
        <circle class="st5" cx="30.2" cy="192.4" r="4.8"/>
        <line class="st0" x1="26.9" y1="189.2" x2="33.6" y2="195.9"/>
      </g>
      <g>
        <circle class="st5" cx="30.2" cy="176.9" r="4.8"/>
        <line class="st0" x1="26.9" y1="173.6" x2="33.6" y2="180.4"/>
      </g>
      <g>
        <circle class="st5" cx="30.2" cy="161.4" r="4.8"/>
        <line class="st0" x1="26.9" y1="158.2" x2="33.6" y2="164.9"/>
      </g>
      <g>
        <circle class="st5" cx="30.2" cy="145.9" r="4.8"/>
        <line class="st0" x1="26.9" y1="142.7" x2="33.6" y2="149.4"/>
      </g>
      <g>
        <circle class="st5" cx="30.2" cy="130.4" r="4.8"/>
        <line class="st0" x1="26.9" y1="127.2" x2="33.6" y2="133.8"/>
      </g>
      <g>
        <circle class="st5" cx="30.2" cy="114.9" r="4.8"/>
        <line class="st0" x1="26.9" y1="111.6" x2="33.6" y2="118.3"/>
      </g>
      <g>
        <circle class="st5" cx="30.2" cy="99.4" r="4.8"/>
        <line class="st0" x1="26.9" y1="96.1" x2="33.6" y2="102.8"/>
      </g>
      <g>
        <circle class="st5" cx="30.2" cy="83.9" r="4.8"/>
        <line class="st0" x1="26.9" y1="80.6" x2="33.6" y2="87.3"/>
      </g>
      <g>
        <circle class="st5" cx="30.2" cy="68.4" r="4.8"/>
        <line class="st0" x1="26.9" y1="65.1" x2="33.6" y2="71.8"/>
      </g>
      <g>
        <circle class="st5" cx="30.2" cy="52.9" r="4.8"/>
        <line class="st0" x1="26.9" y1="49.6" x2="33.6" y2="56.3"/>
      </g>
      <g>
        <circle class="st5" cx="30.2" cy="37.4" r="4.8"/>
        <line class="st0" x1="26.9" y1="34.1" x2="33.6" y2="40.8"/>
      </g>
      <g>
        <circle class="st5" cx="30.2" cy="21.8" r="4.8"/>
        <line class="st0" x1="26.9" y1="18.6" x2="33.6" y2="25.3"/>
      </g>
    </g>
    <g>
      <rect class="st2" x="63.3" y="10.8" width="24.2" height="211.1"/>
      <g>
        <circle class="st5" cx="75.5" cy="207.9" r="4.8"/>
        <line class="st0" x1="72.3" y1="204.7" x2="78.9" y2="211.4"/>
      </g>
      <g>
        <circle class="st5" cx="75.5" cy="192.4" r="4.8"/>
        <line class="st0" x1="72.3" y1="189.2" x2="78.9" y2="195.9"/>
      </g>
      <g>
        <circle class="st5" cx="75.5" cy="176.9" r="4.8"/>
        <line class="st0" x1="72.3" y1="173.6" x2="78.9" y2="180.4"/>
      </g>
      <g>
        <circle class="st5" cx="75.5" cy="161.4" r="4.8"/>
        <line class="st0" x1="72.3" y1="158.2" x2="78.9" y2="164.9"/>
      </g>
      <g>
        <circle class="st5" cx="75.5" cy="145.9" r="4.8"/>
        <line class="st0" x1="72.3" y1="142.7" x2="78.9" y2="149.4"/>
      </g>
      <g>
        <circle class="st5" cx="75.5" cy="130.4" r="4.8"/>
        <line class="st0" x1="72.3" y1="127.2" x2="78.9" y2="133.8"/>
      </g>
      <g>
        <circle class="st5" cx="75.5" cy="114.9" r="4.8"/>
        <line class="st0" x1="72.3" y1="111.6" x2="78.9" y2="118.3"/>
      </g>
      <g>
        <circle class="st5" cx="75.5" cy="99.4" r="4.8"/>
        <line class="st0" x1="72.3" y1="96.1" x2="78.9" y2="102.8"/>
      </g>
      <g>
        <circle class="st5" cx="75.5" cy="83.9" r="4.8"/>
        <line class="st0" x1="72.3" y1="80.6" x2="78.9" y2="87.3"/>
      </g>
      <g>
        <circle class="st5" cx="75.5" cy="68.4" r="4.8"/>
        <line class="st0" x1="72.3" y1="65.1" x2="78.9" y2="71.8"/>
      </g>
      <g>
        <circle class="st5" cx="75.5" cy="52.9" r="4.8"/>
        <line class="st0" x1="72.3" y1="49.6" x2="78.9" y2="56.3"/>
      </g>
      <g>
        <circle class="st5" cx="75.5" cy="37.4" r="4.8"/>
        <line class="st0" x1="72.3" y1="34.1" x2="78.9" y2="40.8"/>
      </g>
      <g>
        <circle class="st5" cx="75.5" cy="21.8" r="4.8"/>
        <line class="st0" x1="72.3" y1="18.6" x2="78.9" y2="25.3"/>
      </g>
    </g>
    <g>
      <rect class="st2" x="217.8" y="10.8" width="24.2" height="211.1"/>
      <g>
        <circle class="st5" cx="230" cy="207.9" r="4.8"/>
        <line class="st0" x1="226.7" y1="204.7" x2="233.5" y2="211.4"/>
      </g>
      <g>
        <circle class="st5" cx="230" cy="192.4" r="4.8"/>
        <line class="st0" x1="226.7" y1="189.2" x2="233.5" y2="195.9"/>
      </g>
      <g>
        <circle class="st5" cx="230" cy="176.9" r="4.8"/>
        <line class="st0" x1="226.7" y1="173.6" x2="233.5" y2="180.4"/>
      </g>
      <g>
        <circle class="st5" cx="230" cy="161.4" r="4.8"/>
        <line class="st0" x1="226.7" y1="158.2" x2="233.5" y2="164.9"/>
      </g>
      <g>
        <circle class="st5" cx="230" cy="145.9" r="4.8"/>
        <line class="st0" x1="226.7" y1="142.7" x2="233.5" y2="149.4"/>
      </g>
      <g>
        <circle class="st5" cx="230" cy="130.4" r="4.8"/>
        <line class="st0" x1="226.7" y1="127.2" x2="233.5" y2="133.8"/>
      </g>
      <g>
        <circle class="st5" cx="230" cy="114.9" r="4.8"/>
        <line class="st0" x1="226.7" y1="111.6" x2="233.5" y2="118.3"/>
      </g>
      <g>
        <circle class="st5" cx="230" cy="99.4" r="4.8"/>
        <line class="st0" x1="226.7" y1="96.1" x2="233.5" y2="102.8"/>
      </g>
      <g>
        <circle class="st5" cx="230" cy="83.9" r="4.8"/>
        <line class="st0" x1="226.7" y1="80.6" x2="233.5" y2="87.3"/>
      </g>
      <g>
        <circle class="st5" cx="230" cy="68.4" r="4.8"/>
        <line class="st0" x1="226.7" y1="65.1" x2="233.5" y2="71.8"/>
      </g>
      <g>
        <circle class="st5" cx="230" cy="52.9" r="4.8"/>
        <line class="st0" x1="226.7" y1="49.6" x2="233.5" y2="56.3"/>
      </g>
      <g>
        <circle class="st5" cx="230" cy="37.4" r="4.8"/>
        <line class="st0" x1="226.7" y1="34.1" x2="233.5" y2="40.8"/>
      </g>
      <g>
        <circle class="st5" cx="230" cy="21.8" r="4.8"/>
        <line class="st0" x1="226.7" y1="18.6" x2="233.5" y2="25.3"/>
      </g>
    </g>
    <g>
      <rect class="st2" x="263.1" y="10.8" width="24.2" height="211.1"/>
      <g>
        <circle class="st5" cx="275.3" cy="207.9" r="4.8"/>
        <line class="st0" x1="272.1" y1="204.7" x2="278.8" y2="211.4"/>
      </g>
      <g>
        <circle class="st5" cx="275.3" cy="192.4" r="4.8"/>
        <line class="st0" x1="272.1" y1="189.2" x2="278.8" y2="195.9"/>
      </g>
      <g>
        <circle class="st5" cx="275.3" cy="176.9" r="4.8"/>
        <line class="st0" x1="272.1" y1="173.6" x2="278.8" y2="180.4"/>
      </g>
      <g>
        <circle class="st5" cx="275.3" cy="161.4" r="4.8"/>
        <line class="st0" x1="272.1" y1="158.2" x2="278.8" y2="164.9"/>
      </g>
      <g>
        <circle class="st5" cx="275.3" cy="145.9" r="4.8"/>
        <line class="st0" x1="272.1" y1="142.7" x2="278.8" y2="149.4"/>
      </g>
      <g>
        <circle class="st5" cx="275.3" cy="130.4" r="4.8"/>
        <line class="st0" x1="272.1" y1="127.2" x2="278.8" y2="133.8"/>
      </g>
      <g>
        <circle class="st5" cx="275.3" cy="114.9" r="4.8"/>
        <line class="st0" x1="272.1" y1="111.6" x2="278.8" y2="118.3"/>
      </g>
      <g>
        <circle class="st5" cx="275.3" cy="99.4" r="4.8"/>
        <line class="st0" x1="272.1" y1="96.1" x2="278.8" y2="102.8"/>
      </g>
      <g>
        <circle class="st5" cx="275.3" cy="83.9" r="4.8"/>
        <line class="st0" x1="272.1" y1="80.6" x2="278.8" y2="87.3"/>
      </g>
      <g>
        <circle class="st5" cx="275.3" cy="68.4" r="4.8"/>
        <line class="st0" x1="272.1" y1="65.1" x2="278.8" y2="71.8"/>
      </g>
      <g>
        <circle class="st5" cx="275.3" cy="52.9" r="4.8"/>
        <line class="st0" x1="272.1" y1="49.6" x2="278.8" y2="56.3"/>
      </g>
      <g>
        <circle class="st5" cx="275.3" cy="37.4" r="4.8"/>
        <line class="st0" x1="272.1" y1="34.1" x2="278.8" y2="40.8"/>
      </g>
      <g>
        <circle class="st5" cx="275.3" cy="21.8" r="4.8"/>
        <line class="st0" x1="272.1" y1="18.6" x2="278.8" y2="25.3"/>
      </g>
    </g>
  </g>
  <g id="DB-50">
    <path id="path3878" class="st4" d="M297.6,289.7c0,4.6-3.8,8.4-8.4,8.4H13.7c-4.6,0-8.4-3.8-8.4-8.4v-49.8c0-4.6,3.8-8.4,8.4-8.4h275.5c4.6,0,8.4,3.8,8.4,8.4v49.8h0Z"/>
    <path id="path3880" class="st1" d="M41.4,240.8c-6.4,0-10.8,5.2-9.7,11.5l4.4,24.9c1.1,6.3,7.3,11.5,13.7,11.5h203.1c6.4,0,12.6-5.2,13.7-11.5l4.5-24.9c1.1-6.3-3.2-11.5-9.7-11.5H41.4Z"/>
    <g id="g3882">
      <path id="path3884" class="st1" d="M19.3,259c3.2,0,5.8,2.6,5.8,5.8s-2.6,5.8-5.8,5.8-5.8-2.6-5.8-5.8,2.6-5.8,5.8-5.8Z"/>
      <path id="path3886" class="st1" d="M283.6,259c3.2,0,5.8,2.6,5.8,5.8s-2.6,5.8-5.8,5.8-5.8-2.6-5.8-5.8,2.6-5.8,5.8-5.8Z"/>
    </g>
    <g id="g3888">
      <circle id="circle3890" class="st1" cx="50.4" cy="252" r="2.6"/>
      <circle id="circle3892" class="st1" cx="63.1" cy="252" r="2.6"/>
      <circle id="circle3894" class="st1" cx="75.7" cy="252" r="2.6"/>
      <circle id="circle3896" class="st1" cx="88.4" cy="252" r="2.6"/>
      <path id="path3898" class="st1" d="M56.7,262.2c1.4,0,2.6,1.1,2.6,2.6s-1.1,2.6-2.6,2.6-2.6-1.1-2.6-2.6,1.1-2.6,2.6-2.6Z"/>
      <path id="path3900" class="st1" d="M69.4,262.2c1.4,0,2.6,1.1,2.6,2.6s-1.1,2.6-2.6,2.6-2.6-1.1-2.6-2.6,1.1-2.6,2.6-2.6Z"/>
      <path id="path3902" class="st1" d="M82,262.2c1.4,0,2.6,1.1,2.6,2.6s-1.1,2.6-2.6,2.6-2.6-1.1-2.6-2.6,1.1-2.6,2.6-2.6Z"/>
      <path id="path3904" class="st1" d="M94.7,262.2c1.4,0,2.6,1.1,2.6,2.6s-1.1,2.6-2.6,2.6-2.6-1.1-2.6-2.6,1.1-2.6,2.6-2.6Z"/>
      <circle id="circle3906" class="st1" cx="138.9" cy="252" r="2.6"/>
      <path id="path3908" class="st1" d="M126.2,249.4c-1.4,0-2.6,1.1-2.6,2.6s1.1,2.6,2.6,2.6,2.6-1.1,2.6-2.6-1.1-2.6-2.6-2.6Z"/>
      <circle id="circle3910" class="st1" cx="113.6" cy="252" r="2.6"/>
      <circle id="circle3912" class="st1" cx="101" cy="252" r="2.6"/>
      <circle id="circle3914" class="st1" cx="132.5" cy="264.8" r="2.6"/>
      <circle id="circle3916" class="st1" cx="119.9" cy="264.8" r="2.6"/>
      <circle id="circle3918" class="st1" cx="107.3" cy="264.8" r="2.6"/>
      <path id="path3920" class="st1" d="M202,249.4c-1.4,0-2.6,1.1-2.6,2.6s1.1,2.6,2.6,2.6,2.6-1.1,2.6-2.6-1.1-2.6-2.6-2.6Z"/>
      <circle id="circle3922" class="st1" cx="195.7" cy="264.8" r="2.6"/>
      <circle id="circle3924" class="st1" cx="151.5" cy="252" r="2.6"/>
      <path id="path3926" class="st1" d="M164.1,249.4c1.4,0,2.6,1.1,2.6,2.6s-1.1,2.6-2.6,2.6-2.6-1.1-2.6-2.6,1.1-2.6,2.6-2.6Z"/>
      <path id="path3928" class="st1" d="M176.8,249.4c1.4,0,2.6,1.1,2.6,2.6s-1.1,2.6-2.6,2.6-2.6-1.1-2.6-2.6,1.1-2.6,2.6-2.6Z"/>
      <circle id="circle3930" class="st1" cx="189.4" cy="252" r="2.6"/>
      <path id="path3932" class="st1" d="M145.2,262.2c1.4,0,2.6,1.1,2.6,2.6s-1.1,2.6-2.6,2.6-2.6-1.1-2.6-2.6,1.1-2.6,2.6-2.6Z"/>
      <path id="path3934" class="st1" d="M157.8,262.2c1.4,0,2.6,1.1,2.6,2.6s-1.1,2.6-2.6,2.6-2.6-1.1-2.6-2.6,1.1-2.6,2.6-2.6Z"/>
      <path id="path3936" class="st1" d="M170.5,262.2c1.4,0,2.6,1.1,2.6,2.6s-1.1,2.6-2.6,2.6-2.6-1.1-2.6-2.6,1.1-2.6,2.6-2.6Z"/>
      <path id="path3938" class="st1" d="M183.1,262.2c1.4,0,2.6,1.1,2.6,2.6s-1.1,2.6-2.6,2.6-2.6-1.1-2.6-2.6,1.1-2.6,2.6-2.6Z"/>
      <path id="path3940" class="st1" d="M208.3,262.2c1.4,0,2.6,1.1,2.6,2.6s-1.1,2.6-2.6,2.6-2.6-1.1-2.6-2.6,1.1-2.6,2.6-2.6Z"/>
      <path id="path3942" class="st1" d="M239.9,249.4c-1.4,0-2.6,1.1-2.6,2.6s1.1,2.6,2.6,2.6,2.6-1.1,2.6-2.6-1.1-2.6-2.6-2.6Z"/>
      <path id="path3944" class="st1" d="M227.3,249.4c-1.4,0-2.6,1.1-2.6,2.6s1.1,2.6,2.6,2.6,2.6-1.1,2.6-2.6-1.1-2.6-2.6-2.6Z"/>
      <path id="path3946" class="st1" d="M214.6,249.4c1.4,0,2.6,1.1,2.6,2.6s-1.1,2.6-2.6,2.6-2.6-1.1-2.6-2.6,1.1-2.6,2.6-2.6Z"/>
      <circle id="circle3948" class="st1" cx="246.3" cy="264.8" r="2.6"/>
      <path id="path3950" class="st1" d="M252.6,249.4c1.4,0,2.6,1.1,2.6,2.6s-1.1,2.6-2.6,2.6-2.6-1.1-2.6-2.6,1.1-2.6,2.6-2.6Z"/>
      <path id="path3952" class="st1" d="M233.6,262.2c1.4,0,2.6,1.1,2.6,2.6s-1.1,2.6-2.6,2.6-2.6-1.1-2.6-2.6,1.1-2.6,2.6-2.6Z"/>
      <path id="path3954" class="st1" d="M47.9,277.5c0-1.4,1.1-2.6,2.6-2.6s2.6,1.1,2.6,2.6-1.1,2.6-2.6,2.6-2.6-1.1-2.6-2.6Z"/>
      <path id="path3956" class="st1" d="M60.5,277.5c0-1.4,1.1-2.6,2.6-2.6s2.6,1.1,2.6,2.6-1.1,2.6-2.6,2.6-2.6-1.1-2.6-2.6Z"/>
      <circle id="circle3958" class="st1" cx="75.7" cy="277.5" r="2.6"/>
      <path id="path3960" class="st1" d="M85.7,277.5c0-1.4,1.1-2.6,2.6-2.6s2.6,1.1,2.6,2.6-1.1,2.6-2.6,2.6-2.6-1.1-2.6-2.6Z"/>
      <path id="path3962" class="st1" d="M136.3,277.5c0-1.4,1.1-2.6,2.6-2.6s2.6,1.1,2.6,2.6-1.1,2.6-2.6,2.6-2.6-1.1-2.6-2.6Z"/>
      <path id="path3964" class="st1" d="M128.8,277.5c0-1.4-1.1-2.6-2.6-2.6s-2.6,1.1-2.6,2.6,1.1,2.6,2.6,2.6,2.6-1.1,2.6-2.6Z"/>
      <path id="path3966" class="st1" d="M111,277.5c0-1.4,1.1-2.6,2.6-2.6s2.6,1.1,2.6,2.6-1.1,2.6-2.6,2.6-2.6-1.1-2.6-2.6h0Z"/>
      <path id="path3968" class="st1" d="M98.4,277.5c0-1.4,1.1-2.6,2.6-2.6s2.6,1.1,2.6,2.6-1.1,2.6-2.6,2.6-2.6-1.1-2.6-2.6Z"/>
      <path id="path3970" class="st1" d="M204.6,277.5c0-1.4-1.1-2.6-2.6-2.6s-2.6,1.1-2.6,2.6,1.1,2.6,2.6,2.6,2.6-1.1,2.6-2.6Z"/>
      <circle id="circle3972" class="st1" cx="151.5" cy="277.5" r="2.6"/>
      <path id="path3974" class="st1" d="M161.6,277.5c0-1.4,1.1-2.6,2.6-2.6s2.6,1.1,2.6,2.6-1.1,2.6-2.6,2.6-2.6-1.1-2.6-2.6Z"/>
      <path id="path3976" class="st1" d="M174.2,277.5c0-1.4,1.1-2.6,2.6-2.6s2.6,1.1,2.6,2.6-1.1,2.6-2.6,2.6-2.6-1.1-2.6-2.6Z"/>
      <circle id="circle3978" class="st1" cx="189.4" cy="277.5" r="2.6"/>
      <path id="path3980" class="st1" d="M242.5,277.5c0-1.4-1.1-2.6-2.6-2.6s-2.6,1.1-2.6,2.6,1.1,2.6,2.6,2.6,2.6-1.1,2.6-2.6Z"/>
      <path id="path3982" class="st1" d="M229.9,277.5c0-1.4-1.1-2.6-2.6-2.6s-2.6,1.1-2.6,2.6,1.1,2.6,2.6,2.6,2.6-1.1,2.6-2.6Z"/>
      <path id="path3984" class="st1" d="M212.1,277.5c0-1.4,1.1-2.6,2.6-2.6s2.6,1.1,2.6,2.6-1.1,2.6-2.6,2.6-2.6-1.1-2.6-2.6Z"/>
      <path id="path3986" class="st1" d="M250,277.5c0-1.4,1.1-2.6,2.6-2.6s2.6,1.1,2.6,2.6-1.1,2.6-2.6,2.6-2.6-1.1-2.6-2.6Z"/>
      <circle id="circle3988" class="st1" cx="221" cy="264.8" r="2.6"/>
    </g>
  </g>
</svg>