<?xml version="1.0" encoding="utf-8"?>
<!-- Generator: Adobe Illustrator 30.1.0, SVG Export Plug-In . SVG Version: 9.03 Build 0)  -->
<svg version="1.1" baseProfile="basic" id="Layer_1"
	 xmlns="http://www.w3.org/2000/svg" xmlns:xlink="http://www.w3.org/1999/xlink" x="0px" y="0px" viewBox="0 0 102.7 56.8"
	 xml:space="preserve">
<style type="text/css">
	.st0{fill:#878787;}
	.st1{fill:#2D2D2D;}
	.st2{opacity:0.35;}
	.st3{opacity:0.35;fill:#FFFFFF;}
	.st4{fill:#6D6D6D;stroke:#6D6D6D;stroke-width:1;stroke-miterlimit:3.9999;}
	.st5{fill:#E5E500;}
	.st6{fill:#F3FF00;}
	.st7{opacity:0.5;fill:#686868;}
	.st8{opacity:0.16;fill:#FFFFFF;}
	.st9{opacity:0.16;}
	.st10{fill:#FFFFFF;}
	.st11{fill:#6B6B6B;}
	.st12{fill:#ED8F66;}
</style>
<g id="breadboard">
	<g>
		<rect x="89.7" y="25.2" class="st0" width="13" height="4.6"/>
		<rect x="89.7" y="25.2" class="st1" width="0.5" height="4.6"/>
		<rect x="89.7" y="29.3" class="st2" width="13" height="0.5"/>
		<path class="st3" d="M102.4,26.5c0,0.3-0.3,0.5-0.6,0.5H89.3c-0.3,0-0.6-0.2-0.6-0.4v-0.4c0-0.3,0.3-0.5,0.6-0.5h12.4
			c0.3,0,0.6,0.2,0.6,0.5V26.5z"/>
	</g>
	<g>
		<path class="st4" d="M89.2,7.5c0-1.6-1.3-2.8-2.8-2.8h0c-1.6,0-2.8-0.9-2.8-2.1s-1.3-2.1-2.8-2.1H11.1v54.7h69.6
			c1.6,0,2.8-0.9,2.8-2.1c0-1.1,1.3-2.1,2.8-2.1h0c1.6,0,2.8-1.3,2.8-2.8L89.2,7.5L89.2,7.5z"/>
	</g>
	<path class="st2" d="M86.8,47.8L86.8,47.8c-1.6,0-3.1,0.6-3.1,1.3c0,0.7-1,1.3-2.5,1.3H16.8V55h63.8c1.5,0,2.8-0.9,2.8-2.1
		s1.3-2.1,2.8-2.1h0c1.5,0,2.8-1.3,2.8-2.8V46C89.1,47,88.4,47.8,86.8,47.8z"/>
	<rect x="6.4" y="26.3" class="st0" width="0.9" height="3"/>
	<rect x="10.2" y="25.1" class="st5" width="10.2" height="5.6"/>
	<g>
		<rect x="7.4" y="18.9" class="st5" width="2.8" height="18"/>
		<polygon class="st6" points="17.7,25.1 17.7,0 10.2,0 10.2,26 20.4,26 20.4,29.7 10.2,29.7 10.2,55.7 17.7,55.7 17.7,30.7 
			20.4,30.7 20.4,25.1 		"/>
	</g>
	<path class="st7" d="M84.3,28.1c0,13.3-0.8,24-0.8,24V4C83.5,4,84.3,14.8,84.3,28.1z"/>
	<path class="st8" d="M82.4,17.8c0,1.4-1.4,2.6-3.2,2.6H23.7c-1.8,0-3.2-1-3.2-2.5V5.1c0-1.4,1.4-2.7,3.2-2.7h55.5
		c1.8,0,3.2,1.1,3.2,2.6V17.8z"/>
	<g class="st9">
		<path class="st10" d="M88.1,18.2c0,0.8-0.6,1.4-1.4,1.4h-0.4c-0.8,0-1.4-0.6-1.4-1.4V7.7c0-0.8,0.6-1.4,1.4-1.4h0.4
			c0.8,0,1.4,0.6,1.4,1.4V18.2z"/>
	</g>
	<g>
		<path d="M74.6,24.7c-1,0-1.9-0.8-1.9-1.9v-8.4c0-1,0.8-1.9,1.9-1.9c1,0,1.9,0.8,1.9,1.9v8.4C76.5,23.8,75.6,24.7,74.6,24.7
			L74.6,24.7z"/>
		<path class="st11" d="M74.6,13c0.8,0,1.4,0.6,1.4,1.4v8.4c0,0.8-0.6,1.4-1.4,1.4c-0.8,0-1.4-0.6-1.4-1.4v-8.4
			C73.2,13.6,73.8,13,74.6,13 M74.6,12c-1.3,0-2.4,1.1-2.4,2.4v8.4c0,1.3,1.1,2.4,2.4,2.4c1.3,0,2.4-1.1,2.4-2.4v-8.4
			C77,13,75.9,12,74.6,12L74.6,12z"/>
	</g>
	<g>
		<path d="M74.6,43.2c-1,0-1.9-0.8-1.9-1.9v-8.4c0-1,0.8-1.9,1.9-1.9c1,0,1.9,0.8,1.9,1.9v8.4C76.5,42.4,75.6,43.2,74.6,43.2
			L74.6,43.2z"/>
		<path class="st11" d="M74.6,31.6c0.8,0,1.4,0.6,1.4,1.4v8.4c0,0.8-0.6,1.4-1.4,1.4c-0.8,0-1.4-0.6-1.4-1.4v-8.4
			C73.2,32.2,73.8,31.6,74.6,31.6 M74.6,30.6c-1.3,0-2.4,1.1-2.4,2.4v8.4c0,1.3,1.1,2.4,2.4,2.4c1.3,0,2.4-1.1,2.4-2.4v-8.4
			C77,31.6,75.9,30.6,74.6,30.6L74.6,30.6z"/>
	</g>
	<g>
		<path d="M74.6,6.1c-1,0-1.9-0.8-1.9-1.9V0.5h3.8v3.7C76.5,5.2,75.6,6.1,74.6,6.1L74.6,6.1z"/>
		<path class="st11" d="M76,1v3.2c0,0.8-0.6,1.4-1.4,1.4c-0.8,0-1.4-0.6-1.4-1.4V1H76 M77,0h-4.8v4.2c0,1.3,1.1,2.4,2.4,2.4
			c1.3,0,2.4-1.1,2.4-2.4V0L77,0z"/>
	</g>
	<g>
		<path d="M72.7,55.2v-3.7c0-1,0.8-1.9,1.9-1.9c1,0,1.9,0.8,1.9,1.9v3.7C76.5,55.2,72.7,55.2,72.7,55.2z"/>
		<path class="st11" d="M74.6,50.1c0.8,0,1.4,0.6,1.4,1.4v3.2h-2.8v-3.2C73.2,50.8,73.8,50.1,74.6,50.1 M74.6,49.1
			c-1.3,0-2.4,1.1-2.4,2.4v4.2H77v-4.2C77,50.2,75.9,49.1,74.6,49.1L74.6,49.1z"/>
	</g>
	<g id="wires">
		<path class="st12" d="M2.4,10.4L1.9,11v3l0.6,0.5h7.7v-4.1L2.4,10.4L2.4,10.4z M4,13.8c-0.7,0-1.3-0.6-1.3-1.3s0.6-1.3,1.3-1.3
			s1.3,0.6,1.3,1.3C5.3,13.2,4.7,13.8,4,13.8z"/>
		<path class="st12" d="M2.4,41.2l-0.5,0.5v3l0.6,0.5h7.7v-4.1H2.4z M4,44.6c-0.7,0-1.3-0.6-1.3-1.3c0-0.7,0.6-1.3,1.3-1.3
			s1.3,0.6,1.3,1.3C5.3,44,4.7,44.6,4,44.6z"/>
	</g>
</g>
</svg>
