<?xml version="1.0" encoding="UTF-8"?> <svg xmlns="http://www.w3.org/2000/svg" width="121.88" height="121.89" viewBox="0 0 121.88 121.89"><title>l298n-motor-driver-controller-board</title><path d="M0,0V121.89H121.88V0ZM8.5,4.25A4.25,4.25,0,0,1,12.75,8.5h0A4.25,4.25,0,1,1,8.5,4.25Zm104.88,0a4.26,4.26,0,1,1-4.25,4.27v0a4.25,4.25,0,0,1,4.24-4.26h0ZM8.5,109.13a4.25,4.25,0,0,1,4.25,4.25h0a4.25,4.25,0,0,1-4.25,4.25h0a4.25,4.25,0,0,1-4.25-4.25h0a4.25,4.25,0,0,1,4.24-4.26Zm104.88,0a4.26,4.26,0,1,1-4.25,4.27h0a4.25,4.25,0,0,1,4.24-4.26Z" fill="#c62717"></path><rect x="17.01" y="97.67" width="43.91" height="23.69" fill="#2b83cc"></rect><rect x="17.01" y="103.62" width="43.91" height="15" fill="#35a4ff"></rect><rect x="31.73" y="105.34" width="1.58" height="11.47" fill="#2572b3"></rect><rect x="45.19" y="105.34" width="1.58" height="11.47" fill="#2572b3"></rect><circle cx="25.51" cy="101.57" r="1.25" fill="#1b5280"></circle><circle cx="38.96" cy="101.57" r="1.25" fill="#1b5280"></circle><circle cx="52.42" cy="101.57" r="1.25" fill="#1b5280"></circle><rect x="15.51" y="101.49" width="1.5" height="2.27" fill="#2572b3"></rect><rect x="15.51" y="116.48" width="1.5" height="2.27" fill="#2572b3"></rect><circle cx="25.49" cy="111.08" r="4.95"></circle><path d="M21.38,113.5a4.73,4.73,0,0,0,5.13,2.24L22,107.93A4.73,4.73,0,0,0,21.38,113.5Z" fill="#999"></path><path d="M29.6,108.7a4.72,4.72,0,0,0-5.14-2.2L29,114.3A4.74,4.74,0,0,0,29.6,108.7Z" fill="#999"></path><path d="M23.12,107a4.61,4.61,0,0,0-1.11.91l4.5,7.81a4.7,4.7,0,0,0,1.35-.51,4.43,4.43,0,0,0,1.11-.91l-4.51-7.77a4.34,4.34,0,0,0-1.34.5Z" fill="#666"></path><circle cx="38.99" cy="111.08" r="4.95"></circle><path d="M34.68,109.08a4.73,4.73,0,0,0,1.11,5.49l3.81-8.17A4.72,4.72,0,0,0,34.68,109.08Z" fill="#999"></path><path d="M43.32,113.09a4.73,4.73,0,0,0-1.11-5.49l-3.89,8.16A4.72,4.72,0,0,0,43.32,113.09Z" fill="#999"></path><path d="M41,106.78a4.49,4.49,0,0,0-1.39-.38l-3.81,8.17a4.64,4.64,0,0,0,1.19.81,4.43,4.43,0,0,0,1.38.38l3.81-8.16A4.8,4.8,0,0,0,41,106.78Z" fill="#666"></path><circle cx="52.39" cy="111.09" r="4.95"></circle><path d="M50,115.2a4.74,4.74,0,0,0,5.57-.63l-7.81-4.51A4.73,4.73,0,0,0,50,115.2Z" fill="#999"></path><path d="M54.76,107a4.73,4.73,0,0,0-5.57.63l7.8,4.5A4.73,4.73,0,0,0,54.76,107Z" fill="#999"></path><path d="M48.32,108.72a4.92,4.92,0,0,0-.5,1.34l7.81,4.51a4.61,4.61,0,0,0,.91-1.11,4.34,4.34,0,0,0,.5-1.34l-7.8-4.51A4.9,4.9,0,0,0,48.32,108.72Z" fill="#666"></path><path d="M29.46,111.07a4,4,0,0,1-3.95,4,3.93,3.93,0,0,1-2.78-1.15l-.79.62a4.94,4.94,0,0,0,7.75-6.06l-.8.62a3.81,3.81,0,0,1,.57,2Z" fill="#fff" opacity="0.6" style="isolation: isolate"></path><path d="M30.49,107.82l-.8.62a4.94,4.94,0,0,1-7.75,6l-.79.62a5.94,5.94,0,0,0,9.34-7.29Z" opacity="0.2" style="isolation: isolate"></path><path d="M42.92,111.07a4,4,0,0,1-4.1,3.9,4.07,4.07,0,0,1-2.64-1.09l-.79.62a5,5,0,0,0,7.76-6.06l-.8.62a4,4,0,0,1,.57,2Z" fill="#fff" opacity="0.6" style="isolation: isolate"></path><path d="M43.94,107.82l-.79.62a4.94,4.94,0,0,1-7.76,6l-.79.62a5.94,5.94,0,0,0,10.32-4,5.79,5.79,0,0,0-1-3.25Z" opacity="0.2" style="isolation: isolate"></path><path d="M56.38,111.07a4,4,0,0,1-4.1,3.9,4.07,4.07,0,0,1-2.64-1.09l-.79.62a5,5,0,0,0,8.53-3.43,4.82,4.82,0,0,0-.78-2.63l-.79.62a4,4,0,0,1,.57,2Z" fill="#fff" opacity="0.6" style="isolation: isolate"></path><path d="M57.4,107.82l-.8.62a4.82,4.82,0,0,1,.78,2.63,5,5,0,0,1-5,5,4.93,4.93,0,0,1-3.53-1.57l-.79.62a5.94,5.94,0,0,0,9.34-7.29Z" opacity="0.2" style="isolation: isolate"></path><rect x="22.67" y="119.6" width="5.67" height="2" fill="none"></rect><rect x="36.13" y="119.6" width="5.67" height="2" fill="none"></rect><rect x="49.59" y="119.6" width="5.67" height="2" fill="none"></rect><rect x="0.65" y="67.07" width="23.69" height="29.31" fill="#2b83cc"></rect><rect x="3.39" y="67.07" width="15" height="29.31" fill="#35a4ff"></rect><rect x="5.19" y="81.8" width="11.47" height="1.58" fill="#2572b3"></rect><circle cx="20.44" cy="75.57" r="1.25" fill="#1b5280"></circle><circle cx="20.44" cy="89.02" r="1.25" fill="#1b5280"></circle><rect x="18.24" y="65.57" width="2.27" height="1.5" fill="#2572b3"></rect><rect x="3.26" y="65.57" width="2.27" height="1.5" fill="#2572b3"></rect><circle cx="10.93" cy="75.55" r="4.95"></circle><path d="M8.55,71.44a4.72,4.72,0,0,0-2.23,5.14l7.8-4.51A4.73,4.73,0,0,0,8.55,71.44Z" fill="#999"></path><path d="M13.32,79.66a4.73,4.73,0,0,0,2.21-5.16L7.73,79A4.73,4.73,0,0,0,13.32,79.66Z" fill="#999"></path><path d="M15,73.18a4.9,4.9,0,0,0-.92-1.11L6.32,76.58a4.34,4.34,0,0,0,.5,1.34A4.9,4.9,0,0,0,7.74,79l7.79-4.53A4.79,4.79,0,0,0,15,73.18Z" fill="#666"></path><circle cx="10.92" cy="89.05" r="4.95"></circle><path d="M12.92,84.74a4.75,4.75,0,0,0-5.49,1.12l8.17,3.81A4.77,4.77,0,0,0,12.92,84.74Z" fill="#999"></path><path d="M8.91,93.35a4.75,4.75,0,0,0,5.49-1.12L6.23,88.42A4.75,4.75,0,0,0,8.91,93.35Z" fill="#999"></path><path d="M15.21,91.05a4.74,4.74,0,0,0,.39-1.38L7.43,85.86a4.26,4.26,0,0,0-1.2,2.56l8.17,3.81A4.76,4.76,0,0,0,15.21,91.05Z" fill="#666"></path><path d="M10.92,79.5A4,4,0,0,1,7,75.4a4.07,4.07,0,0,1,1.09-2.64L7.5,72a4.94,4.94,0,0,0,6.06,7.75l-.63-.79A3.87,3.87,0,0,1,10.92,79.5Z" fill="#fff" opacity="0.6" style="isolation: isolate"></path><path d="M14.18,80.55l-.62-.8a4.85,4.85,0,0,1-2.64.75A5,5,0,0,1,7.5,72l-.62-.79a5.95,5.95,0,0,0,7.3,9.34Z" opacity="0.2" style="isolation: isolate"></path><path d="M10.92,93A4,4,0,0,1,7,88.88a4.07,4.07,0,0,1,1.09-2.64L7.5,85.5a4.94,4.94,0,0,0,6.06,7.75l-.63-.8a3.81,3.81,0,0,1-2,.57Z" fill="#fff" opacity="0.6" style="isolation: isolate"></path><path d="M14.18,94l-.62-.8A4.93,4.93,0,0,1,7.5,85.5l-.62-.79a5.95,5.95,0,0,0,7.3,9.34Z" opacity="0.2" style="isolation: isolate"></path><rect x="0.4" y="72.73" width="2" height="5.67" fill="none"></rect><rect x="0.4" y="86.19" width="2" height="5.67" fill="none"></rect><rect x="97.77" y="65.57" width="23.69" height="29.31" fill="#2b83cc"></rect><rect x="103.72" y="65.57" width="15" height="29.31" fill="#35a4ff"></rect><rect x="105.44" y="78.57" width="11.47" height="1.58" fill="#2572b3"></rect><circle cx="101.67" cy="86.38" r="1.25" fill="#1b5280"></circle><circle cx="101.67" cy="72.93" r="1.25" fill="#1b5280"></circle><rect x="101.59" y="94.88" width="2.27" height="1.5" fill="#2572b3"></rect><rect x="116.57" y="94.88" width="2.27" height="1.5" fill="#2572b3"></rect><circle cx="111.18" cy="86.4" r="4.95"></circle><path d="M113.54,90.5a4.71,4.71,0,0,0,2.24-5.13l-7.8,4.5A4.69,4.69,0,0,0,113.54,90.5Z" fill="#999"></path><path d="M108.8,82.29a4.71,4.71,0,0,0-2.24,5.13l7.81-4.5A4.71,4.71,0,0,0,108.8,82.29Z" fill="#999"></path><path d="M107.06,88.77a4.85,4.85,0,0,0,.92,1.1l7.8-4.5a4.4,4.4,0,0,0-.5-1.35,4.81,4.81,0,0,0-.91-1.1l-7.81,4.5A4.4,4.4,0,0,0,107.06,88.77Z" fill="#666"></path><circle cx="111.18" cy="72.9" r="4.95"></circle><path d="M109.17,77.2a4.73,4.73,0,0,0,5.49-1.11l-8.16-3.81A4.73,4.73,0,0,0,109.17,77.2Z" fill="#999"></path><path d="M113.18,68.6a4.73,4.73,0,0,0-5.49,1.11l8.17,3.79A4.73,4.73,0,0,0,113.18,68.6Z" fill="#999"></path><path d="M106.88,70.89a4.49,4.49,0,0,0-.38,1.39l8.16,3.81a4.8,4.8,0,0,0,.82-1.18,4.49,4.49,0,0,0,.38-1.39l-8.17-3.81A4.76,4.76,0,0,0,106.88,70.89Z" fill="#666"></path><path d="M111.17,82.42a4,4,0,0,1,3.9,4.1A4.07,4.07,0,0,1,114,89.16l.61.78a4.94,4.94,0,0,0-6-7.75l.62.8a3.81,3.81,0,0,1,2-.57Z" fill="#fff" opacity="0.6" style="isolation: isolate"></path><path d="M107.91,81.39l.62.8a4.94,4.94,0,0,1,6.06,7.75l.62.79a5.95,5.95,0,0,0-7.3-9.34Z" opacity="0.2" style="isolation: isolate"></path><path d="M111.17,69a4,4,0,0,1,3.9,4.1A4.07,4.07,0,0,1,114,75.7l.61.79A4.94,4.94,0,0,0,111.17,68a4.82,4.82,0,0,0-2.63.78l.62.79a3.9,3.9,0,0,1,2-.57Z" fill="#fff" opacity="0.6" style="isolation: isolate"></path><path d="M107.91,67.94l.62.79a5,5,0,0,1,6.06,7.77l.62.79a5.95,5.95,0,0,0-7.3-9.34Z" opacity="0.2" style="isolation: isolate"></path><rect x="119.7" y="83.55" width="2" height="5.67" fill="none"></rect><rect x="119.7" y="70.09" width="2" height="5.67" fill="none"></rect><polygon points="65.37 116.84 69.44 116.84 71 115.28 71 111.2 69.44 109.64 65.37 109.64 63.8 111.2 63.8 115.28 65.37 116.84" fill="#404040"></polygon><rect x="66.01" y="111.84" width="2.79" height="2.79" fill="none"></rect><rect x="66.32" y="112.11" width="2.16" height="2.26" fill="none"></rect><rect x="66.26" y="112.09" width="2.3" height="2.3" fill="#8d8c8c"></rect><rect x="66.81" y="112.65" width="1.18" height="1.18" fill="#8c8663"></rect><polygon points="68.55 112.09 66.26 112.09 66.81 112.65 68 112.65 68.55 112.09" fill="#b8af82"></polygon><polygon points="68.55 114.39 68 113.83 68 112.65 68.55 112.09 68.55 114.39" fill="#80795b"></polygon><polygon points="66.26 114.39 66.81 113.83 68 113.83 68.55 114.39 66.26 114.39" fill="#5e5b43"></polygon><polygon points="66.26 114.39 66.26 112.09 66.81 112.65 66.81 113.83 66.26 114.39" fill="#9a916c"></polygon><polygon points="72.57 116.84 76.64 116.84 78.2 115.28 78.2 111.2 76.64 109.64 72.57 109.64 71 111.2 71 115.28 72.57 116.84" fill="#404040"></polygon><rect x="73.21" y="111.84" width="2.79" height="2.79" fill="none"></rect><rect x="73.52" y="112.11" width="2.16" height="2.26" fill="none"></rect><rect x="73.46" y="112.09" width="2.3" height="2.3" fill="#8d8c8c"></rect><rect x="74.01" y="112.65" width="1.18" height="1.18" fill="#8c8663"></rect><polygon points="75.75 112.09 73.46 112.09 74.01 112.65 75.19 112.65 75.75 112.09" fill="#b8af82"></polygon><polygon points="75.75 114.39 75.19 113.83 75.19 112.65 75.75 112.09 75.75 114.39" fill="#80795b"></polygon><polygon points="73.46 114.39 74.01 113.83 75.19 113.83 75.75 114.39 73.46 114.39" fill="#5e5b43"></polygon><polygon points="73.46 114.39 73.46 112.09 74.01 112.65 74.01 113.83 73.46 114.39" fill="#9a916c"></polygon><polygon points="79.77 116.84 83.84 116.84 85.41 115.28 85.41 111.2 83.84 109.64 79.77 109.64 78.2 111.2 78.2 115.28 79.77 116.84" fill="#404040"></polygon><rect x="80.41" y="111.84" width="2.79" height="2.79" fill="none"></rect><rect x="80.72" y="112.11" width="2.16" height="2.26" fill="none"></rect><rect x="80.66" y="112.09" width="2.3" height="2.3" fill="#8d8c8c"></rect><rect x="81.21" y="112.65" width="1.18" height="1.18" fill="#8c8663"></rect><polygon points="82.95 112.09 80.66 112.09 81.21 112.65 82.39 112.65 82.95 112.09" fill="#b8af82"></polygon><polygon points="82.95 114.39 82.39 113.83 82.39 112.65 82.95 112.09 82.95 114.39" fill="#80795b"></polygon><polygon points="80.66 114.39 81.21 113.83 82.39 113.83 82.95 114.39 80.66 114.39" fill="#5e5b43"></polygon><polygon points="80.66 114.39 80.66 112.09 81.21 112.65 81.21 113.83 80.66 114.39" fill="#9a916c"></polygon><polygon points="91.04 109.64 86.97 109.64 85.41 111.2 85.41 115.28 86.97 116.84 91.04 116.84 92.61 115.28 92.61 111.2 91.04 109.64" fill="#404040"></polygon><rect x="87.61" y="111.84" width="2.79" height="2.79" fill="none"></rect><rect x="87.92" y="112.11" width="2.16" height="2.26" fill="none"></rect><rect x="87.86" y="112.09" width="2.3" height="2.3" fill="#8d8c8c"></rect><rect x="88.41" y="112.65" width="1.18" height="1.18" fill="#8c8663"></rect><polygon points="90.15 112.09 87.86 112.09 88.41 112.65 89.59 112.65 90.15 112.09" fill="#b8af82"></polygon><polygon points="90.15 114.39 89.59 113.83 89.59 112.65 90.15 112.09 90.15 114.39" fill="#80795b"></polygon><polygon points="87.86 114.39 88.41 113.83 89.59 113.83 90.15 114.39 87.86 114.39" fill="#5e5b43"></polygon><polygon points="87.86 114.39 87.86 112.09 88.41 112.65 88.41 113.83 87.86 114.39" fill="#9a916c"></polygon><polygon points="98.24 109.64 94.17 109.64 92.61 111.2 92.61 115.28 94.17 116.84 98.24 116.84 99.81 115.28 99.81 111.2 98.24 109.64" fill="#404040"></polygon><rect x="94.81" y="111.84" width="2.79" height="2.79" fill="none"></rect><rect x="95.12" y="112.11" width="2.16" height="2.26" fill="none"></rect><rect x="95.06" y="112.09" width="2.3" height="2.3" fill="#8d8c8c"></rect><rect x="95.61" y="112.65" width="1.18" height="1.18" fill="#8c8663"></rect><polygon points="97.35 112.09 95.06 112.09 95.61 112.65 96.8 112.65 97.35 112.09" fill="#b8af82"></polygon><polygon points="97.35 114.39 96.8 113.83 96.8 112.65 97.35 112.09 97.35 114.39" fill="#80795b"></polygon><polygon points="95.06 114.39 95.61 113.83 96.8 113.83 97.35 114.39 95.06 114.39" fill="#5e5b43"></polygon><polygon points="95.06 114.39 95.06 112.09 95.61 112.65 95.61 113.83 95.06 114.39" fill="#9a916c"></polygon><polygon points="105.44 109.64 101.37 109.64 99.81 111.2 99.81 115.28 101.37 116.84 105.44 116.84 107 115.28 107 111.2 105.44 109.64" fill="#404040"></polygon><rect x="102.01" y="111.84" width="2.79" height="2.79" fill="none"></rect><rect x="102.32" y="112.11" width="2.16" height="2.26" fill="none"></rect><rect x="102.26" y="112.09" width="2.3" height="2.3" fill="#8d8c8c"></rect><rect x="102.81" y="112.65" width="1.18" height="1.18" fill="#8c8663"></rect><polygon points="104.55 112.09 102.26 112.09 102.81 112.65 104 112.65 104.55 112.09" fill="#b8af82"></polygon><polygon points="104.55 114.39 104 113.83 104 112.65 104.55 112.09 104.55 114.39" fill="#80795b"></polygon><polygon points="102.26 114.39 102.81 113.83 104 113.83 104.55 114.39 102.26 114.39" fill="#5e5b43"></polygon><polygon points="102.26 114.39 102.26 112.09 102.81 112.65 102.81 113.83 102.26 114.39" fill="#9a916c"></polygon><polygon points="105.44 109.64 107 108.08 107 104 105.44 102.44 101.37 102.44 99.81 104 99.81 108.08 101.37 109.64 105.44 109.64" fill="#404040"></polygon><rect x="102.01" y="104.64" width="2.79" height="2.79" fill="none"></rect><rect x="102.32" y="104.91" width="2.16" height="2.26" fill="none"></rect><rect x="102.26" y="104.89" width="2.3" height="2.3" fill="#8d8c8c"></rect><rect x="102.81" y="105.45" width="1.18" height="1.18" fill="#8c8663"></rect><polygon points="102.26 104.89 102.81 105.45 104 105.45 104.55 104.89 102.26 104.89" fill="#b8af82"></polygon><polygon points="104 106.63 104 105.45 104.55 104.89 104.55 107.19 104 106.63" fill="#80795b"></polygon><polygon points="102.81 106.63 104 106.63 104.55 107.19 102.26 107.19 102.81 106.63" fill="#5e5b43"></polygon><polygon points="102.26 104.89 102.81 105.45 102.81 106.63 102.26 107.19 102.26 104.89" fill="#9a916c"></polygon><polygon points="69.44 109.64 71 108.08 71 104 69.44 102.44 65.37 102.44 63.8 104 63.8 108.08 65.37 109.64 69.44 109.64" fill="#404040"></polygon><rect x="66.01" y="104.64" width="2.79" height="2.79" fill="none"></rect><rect x="66.32" y="104.91" width="2.16" height="2.26" fill="none"></rect><rect x="66.26" y="104.89" width="2.3" height="2.3" fill="#8d8c8c"></rect><rect x="66.81" y="105.45" width="1.18" height="1.18" fill="#8c8663"></rect><polygon points="66.26 104.89 66.81 105.45 68 105.45 68.55 104.89 66.26 104.89" fill="#b8af82"></polygon><polygon points="68 106.63 68 105.45 68.55 104.89 68.55 107.19 68 106.63" fill="#80795b"></polygon><polygon points="66.81 106.63 68 106.63 68.55 107.19 66.26 107.19 66.81 106.63" fill="#5e5b43"></polygon><polygon points="66.26 104.89 66.81 105.45 66.81 106.63 66.26 107.19 66.26 104.89" fill="#9a916c"></polygon><polygon points="39.67 89.41 39.67 85.33 38.1 83.77 34.03 83.77 32.47 85.33 32.47 89.41 34.03 90.97 38.1 90.97 39.67 89.41" fill="#404040"></polygon><rect x="34.67" y="85.97" width="2.79" height="2.79" fill="none"></rect><rect x="34.98" y="86.24" width="2.16" height="2.26" fill="none"></rect><rect x="34.92" y="86.22" width="2.3" height="2.3" fill="#8d8c8c"></rect><rect x="35.48" y="86.78" width="1.18" height="1.18" fill="#8c8663"></rect><polygon points="35.48 86.78 36.66 86.78 37.22 86.22 34.92 86.22 35.48 86.78" fill="#b8af82"></polygon><polygon points="36.66 86.78 37.22 86.22 37.22 88.52 36.66 87.96 36.66 86.78" fill="#80795b"></polygon><polygon points="36.66 87.96 37.22 88.52 34.92 88.52 35.48 87.96 36.66 87.96" fill="#5e5b43"></polygon><polygon points="35.48 86.78 35.48 87.96 34.92 88.52 34.92 86.22 35.48 86.78" fill="#9a916c"></polygon><polygon points="46.87 85.33 45.3 83.77 41.23 83.77 39.67 85.33 39.67 89.41 41.23 90.97 45.3 90.97 46.87 89.41 46.87 85.33" fill="#404040"></polygon><rect x="41.87" y="85.97" width="2.79" height="2.79" fill="none"></rect><rect x="42.18" y="86.24" width="2.16" height="2.26" fill="none"></rect><rect x="42.12" y="86.22" width="2.3" height="2.3" fill="#8d8c8c"></rect><rect x="42.68" y="86.78" width="1.18" height="1.18" fill="#8c8663"></rect><polygon points="43.86 86.78 44.42 86.22 42.12 86.22 42.68 86.78 43.86 86.78" fill="#b8af82"></polygon><polygon points="44.42 86.22 44.42 88.52 43.86 87.96 43.86 86.78 44.42 86.22" fill="#80795b"></polygon><polygon points="44.42 88.52 42.12 88.52 42.68 87.96 43.86 87.96 44.42 88.52" fill="#5e5b43"></polygon><polygon points="42.68 87.96 42.12 88.52 42.12 86.22 42.68 86.78 42.68 87.96" fill="#9a916c"></polygon><rect x="53.73" y="71.74" width="1.04" height="1.27" fill="#ccc"></rect><rect x="34.34" y="71.74" width="1.04" height="1.27" fill="#ccc"></rect><rect x="53.73" y="71.74" width="1.04" height="0.2" opacity="0.1" style="isolation: isolate"></rect><rect x="34.34" y="71.74" width="1.04" height="0.2" opacity="0.1" style="isolation: isolate"></rect><rect x="53.73" y="72.8" width="1.04" height="0.2" fill="#fff" opacity="0.2" style="isolation: isolate"></rect><rect x="34.34" y="72.8" width="1.04" height="0.2" fill="#fff" opacity="0.2" style="isolation: isolate"></rect><path d="M39.18,81.57H52.32a1.38,1.38,0,0,0,1.38-1.38V64.61a1.4,1.4,0,0,0-1.38-1.39H39.18L35.37,67V77.77Z" fill="#1a1a1a"></path><circle cx="44.55" cy="72.4" r="8.7" fill="#e6e6e6"></circle><path d="M39.18,81.57H52.32a1.38,1.38,0,0,0,1.38-1.38V64.61a1.4,1.4,0,0,0-1.38-1.39H39.18L35.37,67V77.77Z" fill="#333"></path><path d="M35.37,67.22l3.81-3.81H52.32a1.38,1.38,0,0,1,1.38,1.38h0v-.18a1.4,1.4,0,0,0-1.38-1.39H39.18L35.37,67Z"></path><path d="M53.72,80a1.38,1.38,0,0,1-1.38,1.38H39.18l-3.81-3.81v.19l3.81,3.8H52.32a1.38,1.38,0,0,0,1.38-1.38Z" fill="#fff" opacity="0.1" style="isolation: isolate"></path><path d="M44.55,63.57a8.71,8.71,0,1,1-8.7,8.72h0a8.71,8.71,0,0,1,8.69-8.71Z" fill="#e6e6e6"></path><path d="M53.25,72.4a8.68,8.68,0,0,0-3.66-7.09V79.5A8.7,8.7,0,0,0,53.25,72.4Z"></path><path d="M35.85,72.16a8.7,8.7,0,0,0,17.4,0v.24a8.7,8.7,0,0,1-17.4,0Z" fill="#fff" opacity="0.3" style="isolation: isolate"></path><path d="M53.25,72.63a8.7,8.7,0,0,0-3.66-7.13v-.23a8.68,8.68,0,0,1,3.66,7.09Z" fill="#fff" opacity="0.5" style="isolation: isolate"></path><path d="M49.59,65.5a8.7,8.7,0,0,0-13.74,7.09V72.4a8.7,8.7,0,0,1,13.74-7.09Z" opacity="0.2" style="isolation: isolate"></path><rect x="92.54" y="95.97" width="1.04" height="1.27" fill="#ccc"></rect><rect x="73.15" y="95.98" width="1.04" height="1.27" fill="#ccc"></rect><rect x="92.54" y="95.97" width="1.04" height="0.2" opacity="0.1" style="isolation: isolate"></rect><rect x="73.15" y="95.97" width="1.04" height="0.2" opacity="0.1" style="isolation: isolate"></rect><rect x="92.54" y="97.04" width="1.04" height="0.2" fill="#fff" opacity="0.2" style="isolation: isolate"></rect><rect x="73.15" y="97.04" width="1.04" height="0.2" fill="#fff" opacity="0.2" style="isolation: isolate"></rect><path d="M78,105.81H91.15a1.38,1.38,0,0,0,1.38-1.38V88.85a1.38,1.38,0,0,0-1.38-1.35H78l-3.81,3.81V102Z" fill="#1a1a1a"></path><circle cx="83.36" cy="96.64" r="8.7" fill="#e6e6e6"></circle><path d="M78,105.81H91.15a1.38,1.38,0,0,0,1.38-1.38V88.85a1.38,1.38,0,0,0-1.38-1.35H78l-3.81,3.81V102Z" fill="#333"></path><path d="M74.18,91.5,78,87.68H91.15a1.4,1.4,0,0,1,1.38,1.39v-.18a1.38,1.38,0,0,0-1.37-1.39H78l-3.81,3.81Z"></path><path d="M92.53,104.24a1.4,1.4,0,0,1-1.38,1.39H78l-3.81-3.81V102L78,105.81H91.15a1.38,1.38,0,0,0,1.38-1.38Z" fill="#fff" opacity="0.1" style="isolation: isolate"></path><path d="M83.32,87.81a8.71,8.71,0,1,1-8.67,8.75V96.5a8.65,8.65,0,0,1,8.61-8.69Z" fill="#e6e6e6"></path><path d="M92.06,96.64a8.69,8.69,0,0,0-3.67-7.09v14.17A8.66,8.66,0,0,0,92.06,96.64Z"></path><path d="M74.65,96.39a8.71,8.71,0,0,0,17.41,0v.25a8.71,8.71,0,0,1-17.41,0Z" fill="#fff" opacity="0.3" style="isolation: isolate"></path><path d="M92.06,96.87a8.69,8.69,0,0,0-3.67-7.09v-.23a8.69,8.69,0,0,1,3.67,7.09Z" fill="#fff" opacity="0.5" style="isolation: isolate"></path><path d="M88.39,89.78a8.69,8.69,0,0,0-13.74,7.09v-.23a8.69,8.69,0,0,1,13.74-7.09Z" opacity="0.2" style="isolation: isolate"></path><polygon points="90.02 62.92 90.02 82.29 92.35 82.29 93.68 78.16 93.68 67.05 92.35 62.92 90.02 62.92" fill="#e6e6e6"></polygon><rect x="73.39" y="62.92" width="17.37" height="19.37" fill="#333"></rect><rect x="70.54" y="62.92" width="2.86" height="19.37"></rect><rect x="68.01" y="71.02" width="4.05" height="2.98" fill="#e6e6e6"></rect><rect x="68.01" y="63.82" width="4.05" height="2.98" fill="#e6e6e6"></rect><rect x="68.01" y="78.22" width="4.05" height="2.98" fill="#e6e6e6"></rect><rect x="66.51" y="63.82" width="1.5" height="2.98" fill="#ccc"></rect><rect x="66.51" y="78.22" width="1.5" height="2.98" fill="#ccc"></rect><rect x="63.09" y="63.82" width="3.42" height="2.98" fill="#e6e6e6"></rect><rect x="63.09" y="78.22" width="3.42" height="2.98" fill="#e6e6e6"></rect><path d="M79.84,62.92a2,2,0,1,1-4.06,0Z"></path><path d="M75.78,82.29a2,2,0,0,1,4.06,0Z"></path><path d="M84.8,69Z" fill="gray"></path><path d="M84.85,69.12h0v-.06h.09Zm0,0Z" fill="gray"></path><path d="M84.8,69.18Z" fill="gray"></path><path d="M84.84,69.27Zm0,0Z" fill="gray"></path><path d="M84.89,69.32h0Zm-.07,0Zm.06,0Z" fill="gray"></path><path d="M84.86,69.39Z" fill="gray"></path><path d="M84.73,69.34Z" fill="gray"></path><path d="M84.71,69.39Zm0,0h0Z" fill="gray"></path><polygon points="92.35 82.29 93.68 78.16 93.68 67.05 92.35 62.92 92.14 62.92 93.47 67.05 93.47 78.16 92.14 82.29 92.35 82.29" fill="#fff" opacity="0.2" style="isolation: isolate"></polygon><rect x="90.56" y="62.92" width="0.21" height="19.37" fill="#fff" opacity="0.2" style="isolation: isolate"></rect><rect x="73.39" y="62.92" width="0.21" height="19.37" opacity="0.2" style="isolation: isolate"></rect><path d="M77.81,65a2,2,0,0,0,2-2H80a2,2,0,0,1-2,2Z" fill="#fff" opacity="0.2" style="isolation: isolate"></path><path d="M79.84,82.29a2,2,0,0,0-2-2h.21a2,2,0,0,1,2,2Z" fill="#fff" opacity="0.2" style="isolation: isolate"></path><rect x="71.79" y="71.77" width="0.09" height="1.67" opacity="0.2" style="isolation: isolate"></rect><rect x="71.79" y="67.74" width="0.09" height="1.67" opacity="0.2" style="isolation: isolate"></rect><rect x="71.79" y="75.8" width="0.09" height="1.67" opacity="0.2" style="isolation: isolate"></rect><rect x="68.01" y="63.82" width="0.16" height="2.98" fill="#fff" opacity="0.2" style="isolation: isolate"></rect><rect x="68.01" y="78.22" width="0.16" height="2.98" fill="#fff" opacity="0.2" style="isolation: isolate"></rect><rect x="66.35" y="63.82" width="0.16" height="2.98" opacity="0.2" style="isolation: isolate"></rect><rect x="66.35" y="78.22" width="0.16" height="2.98" opacity="0.2" style="isolation: isolate"></rect><rect x="4.7" y="50.71" width="2" height="5" fill="#9a916c"></rect><rect x="19.69" y="50.71" width="2" height="5" fill="#9a916c"></rect><rect x="5.1" y="51.11" width="15.99" height="4" opacity="0.5" style="isolation: isolate"></rect><rect x="5.2" y="51.21" width="15.99" height="4" fill="#bbb"></rect><rect x="6.7" y="51.21" width="0.5" height="4" fill="#fff" opacity="0.3" style="isolation: isolate"></rect><rect x="19.19" y="51.21" width="0.5" height="4" fill="#fff" opacity="0.3" style="isolation: isolate"></rect><rect x="6.2" y="51.21" width="0.5" height="4" opacity="0.3" style="isolation: isolate"></rect><rect x="19.69" y="51.21" width="0.5" height="4" opacity="0.3" style="isolation: isolate"></rect><rect x="7.2" y="49.71" width="11.99" height="7"></rect><rect x="8.4" y="49.71" width="1.6" height="7" fill="#2d2d2d"></rect><rect x="4.7" y="41.11" width="2" height="5" fill="#9a916c"></rect><rect x="19.69" y="41.11" width="2" height="5" fill="#9a916c"></rect><rect x="5.1" y="41.51" width="15.99" height="4" opacity="0.5" style="isolation: isolate"></rect><rect x="5.2" y="41.61" width="15.99" height="4" fill="#bbb"></rect><rect x="6.7" y="41.61" width="0.5" height="4" fill="#fff" opacity="0.3" style="isolation: isolate"></rect><rect x="19.19" y="41.61" width="0.5" height="4" fill="#fff" opacity="0.3" style="isolation: isolate"></rect><rect x="6.2" y="41.61" width="0.5" height="4" opacity="0.3" style="isolation: isolate"></rect><rect x="19.69" y="41.61" width="0.5" height="4" opacity="0.3" style="isolation: isolate"></rect><rect x="7.2" y="40.11" width="11.99" height="7"></rect><rect x="8.4" y="40.11" width="1.6" height="7" fill="#2d2d2d"></rect><rect x="4.7" y="31.51" width="2" height="5" fill="#9a916c"></rect><rect x="19.69" y="31.51" width="2" height="5" fill="#9a916c"></rect><rect x="5.1" y="31.91" width="15.99" height="4" opacity="0.5" style="isolation: isolate"></rect><rect x="5.2" y="32.01" width="15.99" height="4" fill="#bbb"></rect><rect x="6.7" y="32.01" width="0.5" height="4" fill="#fff" opacity="0.3" style="isolation: isolate"></rect><rect x="19.19" y="32.01" width="0.5" height="4" fill="#fff" opacity="0.3" style="isolation: isolate"></rect><rect x="6.2" y="32.01" width="0.5" height="4" opacity="0.3" style="isolation: isolate"></rect><rect x="19.69" y="32.01" width="0.5" height="4" opacity="0.3" style="isolation: isolate"></rect><rect x="7.2" y="30.51" width="11.99" height="7"></rect><rect x="8.4" y="30.51" width="1.6" height="7" fill="#2d2d2d"></rect><rect x="4.7" y="21.91" width="2" height="5" fill="#9a916c"></rect><rect x="19.69" y="21.91" width="2" height="5" fill="#9a916c"></rect><rect x="5.1" y="22.31" width="15.99" height="4" opacity="0.5" style="isolation: isolate"></rect><rect x="5.2" y="22.41" width="15.99" height="4" fill="#bbb"></rect><rect x="6.7" y="22.41" width="0.5" height="4" fill="#fff" opacity="0.3" style="isolation: isolate"></rect><rect x="19.19" y="22.41" width="0.5" height="4" fill="#fff" opacity="0.3" style="isolation: isolate"></rect><rect x="6.2" y="22.41" width="0.5" height="4" opacity="0.3" style="isolation: isolate"></rect><rect x="19.69" y="22.41" width="0.5" height="4" opacity="0.3" style="isolation: isolate"></rect><rect x="7.2" y="20.91" width="11.99" height="7"></rect><rect x="8.4" y="20.91" width="1.6" height="7" fill="#2d2d2d"></rect><rect x="100.71" y="50.71" width="2" height="5" fill="#9a916c"></rect><rect x="115.7" y="50.71" width="2" height="5" fill="#9a916c"></rect><rect x="101.11" y="51.11" width="15.99" height="4" opacity="0.5" style="isolation: isolate"></rect><rect x="101.21" y="51.21" width="15.99" height="4" fill="#bbb"></rect><rect x="102.71" y="51.21" width="0.5" height="4" fill="#fff" opacity="0.3" style="isolation: isolate"></rect><rect x="115.2" y="51.21" width="0.5" height="4" fill="#fff" opacity="0.3" style="isolation: isolate"></rect><rect x="102.21" y="51.21" width="0.5" height="4" opacity="0.3" style="isolation: isolate"></rect><rect x="115.7" y="51.21" width="0.5" height="4" opacity="0.3" style="isolation: isolate"></rect><rect x="103.21" y="49.71" width="11.99" height="7"></rect><rect x="104.41" y="49.71" width="1.6" height="7" fill="#2d2d2d"></rect><rect x="100.71" y="41.11" width="2" height="5" fill="#9a916c"></rect><rect x="115.7" y="41.11" width="2" height="5" fill="#9a916c"></rect><rect x="101.11" y="41.51" width="15.99" height="4" opacity="0.5" style="isolation: isolate"></rect><rect x="101.21" y="41.61" width="15.99" height="4" fill="#bbb"></rect><rect x="102.71" y="41.61" width="0.5" height="4" fill="#fff" opacity="0.3" style="isolation: isolate"></rect><rect x="115.2" y="41.61" width="0.5" height="4" fill="#fff" opacity="0.3" style="isolation: isolate"></rect><rect x="102.21" y="41.61" width="0.5" height="4" opacity="0.3" style="isolation: isolate"></rect><rect x="115.7" y="41.61" width="0.5" height="4" opacity="0.3" style="isolation: isolate"></rect><rect x="103.21" y="40.11" width="11.99" height="7"></rect><rect x="104.41" y="40.11" width="1.6" height="7" fill="#2d2d2d"></rect><rect x="100.71" y="31.51" width="2" height="5" fill="#9a916c"></rect><rect x="115.7" y="31.51" width="2" height="5" fill="#9a916c"></rect><rect x="101.11" y="31.91" width="15.99" height="4" opacity="0.5" style="isolation: isolate"></rect><rect x="101.21" y="32.01" width="15.99" height="4" fill="#bbb"></rect><rect x="102.71" y="32.01" width="0.5" height="4" fill="#fff" opacity="0.3" style="isolation: isolate"></rect><rect x="115.2" y="32.01" width="0.5" height="4" fill="#fff" opacity="0.3" style="isolation: isolate"></rect><rect x="102.21" y="32.01" width="0.5" height="4" opacity="0.3" style="isolation: isolate"></rect><rect x="115.7" y="32.01" width="0.5" height="4" opacity="0.3" style="isolation: isolate"></rect><rect x="103.21" y="30.51" width="11.99" height="7"></rect><rect x="104.41" y="30.51" width="1.6" height="7" fill="#2d2d2d"></rect><rect x="100.71" y="21.91" width="2" height="5" fill="#9a916c"></rect><rect x="115.7" y="21.91" width="2" height="5" fill="#9a916c"></rect><rect x="101.11" y="22.31" width="15.99" height="4" opacity="0.5" style="isolation: isolate"></rect><rect x="101.21" y="22.41" width="15.99" height="4" fill="#bbb"></rect><rect x="102.71" y="22.41" width="0.5" height="4" fill="#fff" opacity="0.3" style="isolation: isolate"></rect><rect x="115.2" y="22.41" width="0.5" height="4" fill="#fff" opacity="0.3" style="isolation: isolate"></rect><rect x="102.21" y="22.41" width="0.5" height="4" opacity="0.3" style="isolation: isolate"></rect><rect x="115.7" y="22.41" width="0.5" height="4" opacity="0.3" style="isolation: isolate"></rect><rect x="103.21" y="20.91" width="11.99" height="7"></rect><rect x="104.41" y="20.91" width="1.6" height="7" fill="#2d2d2d"></rect><rect x="80.99" y="26.77" width="3.03" height="7.57" fill="#ccc"></rect><rect x="80.99" y="34.35" width="3.03" height="3.2" fill="#e6e6e6"></rect><rect x="80.99" y="26.77" width="3.03" height="1.24" opacity="0.2" style="isolation: isolate"></rect><polygon points="84.02 37.55 80.99 37.55 81.49 39.67 83.51 39.67 84.02 37.55" fill="#e6e6e6"></polygon><rect x="73.78" y="26.77" width="3.03" height="7.57" fill="#ccc"></rect><rect x="73.78" y="34.35" width="3.03" height="3.2" fill="#e6e6e6"></rect><rect x="73.78" y="26.77" width="3.03" height="1.24" opacity="0.2" style="isolation: isolate"></rect><polygon points="76.82 37.55 73.78 37.55 74.29 39.67 76.31 39.67 76.82 37.55" fill="#e6e6e6"></polygon><rect x="66.59" y="26.77" width="3.03" height="7.57" fill="#ccc"></rect><rect x="66.59" y="34.35" width="3.03" height="3.2" fill="#e6e6e6"></rect><rect x="66.59" y="26.77" width="3.03" height="1.24" opacity="0.2" style="isolation: isolate"></rect><polygon points="69.62 37.55 66.59 37.55 67.09 39.67 69.11 39.67 69.62 37.55" fill="#e6e6e6"></polygon><rect x="59.39" y="26.77" width="3.03" height="7.57" fill="#ccc"></rect><rect x="59.39" y="34.35" width="3.03" height="3.2" fill="#e6e6e6"></rect><rect x="59.39" y="26.77" width="3.03" height="1.24" opacity="0.2" style="isolation: isolate"></rect><polygon points="62.42 37.55 59.39 37.55 59.89 39.67 61.91 39.67 62.42 37.55" fill="#e6e6e6"></polygon><rect x="52.19" y="26.77" width="3.03" height="7.57" fill="#ccc"></rect><rect x="52.19" y="34.35" width="3.03" height="3.2" fill="#e6e6e6"></rect><rect x="52.19" y="26.77" width="3.03" height="1.24" opacity="0.2" style="isolation: isolate"></rect><polygon points="55.22 37.55 52.19 37.55 52.69 39.67 54.71 39.67 55.22 37.55" fill="#e6e6e6"></polygon><rect x="44.99" y="26.77" width="3.03" height="7.57" fill="#ccc"></rect><rect x="44.99" y="34.35" width="3.03" height="3.2" fill="#e6e6e6"></rect><rect x="44.99" y="26.77" width="3.03" height="1.24" opacity="0.2" style="isolation: isolate"></rect><polygon points="48.02 37.55 44.99 37.55 45.49 39.67 47.51 39.67 48.02 37.55" fill="#e6e6e6"></polygon><rect x="37.79" y="26.77" width="3.03" height="7.57" fill="#ccc"></rect><rect x="37.79" y="34.35" width="3.03" height="3.2" fill="#e6e6e6"></rect><rect x="37.79" y="26.77" width="3.03" height="1.24" opacity="0.2" style="isolation: isolate"></rect><polygon points="40.82 37.55 37.79 37.55 38.29 39.67 40.31 39.67 40.82 37.55" fill="#e6e6e6"></polygon><rect x="84.63" y="26.77" width="3.03" height="16.6" fill="#ccc"></rect><rect x="84.63" y="26.72" width="3.03" height="4.35" opacity="0.2" style="isolation: isolate"></rect><rect x="84.63" y="43.37" width="3.03" height="7.01" fill="#e6e6e6"></rect><polygon points="87.66 50.39 84.63 50.39 85.14 52.51 87.15 52.51 87.66 50.39" fill="#e6e6e6"></polygon><rect x="77.43" y="26.77" width="3.03" height="16.6" fill="#ccc"></rect><rect x="77.43" y="26.72" width="3.03" height="4.35" opacity="0.2" style="isolation: isolate"></rect><rect x="77.43" y="43.37" width="3.03" height="7.01" fill="#e6e6e6"></rect><polygon points="80.46 50.39 77.43 50.39 77.94 52.51 79.95 52.51 80.46 50.39" fill="#e6e6e6"></polygon><rect x="70.23" y="26.77" width="3.03" height="16.6" fill="#ccc"></rect><rect x="70.23" y="26.72" width="3.03" height="4.35" opacity="0.2" style="isolation: isolate"></rect><rect x="70.23" y="43.37" width="3.03" height="7.01" fill="#e6e6e6"></rect><polygon points="73.26 50.39 70.23 50.39 70.74 52.51 72.75 52.51 73.26 50.39" fill="#e6e6e6"></polygon><rect x="63.03" y="26.77" width="3.03" height="16.6" fill="#ccc"></rect><rect x="63.03" y="26.72" width="3.03" height="4.35" opacity="0.2" style="isolation: isolate"></rect><rect x="63.03" y="43.37" width="3.03" height="7.01" fill="#e6e6e6"></rect><polygon points="66.06 50.39 63.03 50.39 63.53 52.51 65.55 52.51 66.06 50.39" fill="#e6e6e6"></polygon><rect x="55.83" y="26.77" width="3.03" height="16.6" fill="#ccc"></rect><rect x="55.83" y="26.72" width="3.03" height="4.35" opacity="0.2" style="isolation: isolate"></rect><rect x="55.83" y="43.37" width="3.03" height="7.01" fill="#e6e6e6"></rect><polygon points="58.86 50.39 55.83 50.39 56.34 52.51 58.35 52.51 58.86 50.39" fill="#e6e6e6"></polygon><rect x="48.63" y="26.77" width="3.03" height="16.6" fill="#ccc"></rect><rect x="48.63" y="26.72" width="3.03" height="4.35" opacity="0.2" style="isolation: isolate"></rect><rect x="48.63" y="43.37" width="3.03" height="7.01" fill="#e6e6e6"></rect><polygon points="51.66 50.39 48.63 50.39 49.14 52.51 51.15 52.51 51.66 50.39" fill="#e6e6e6"></polygon><rect x="41.43" y="26.77" width="3.03" height="16.6" fill="#ccc"></rect><rect x="41.43" y="26.72" width="3.03" height="4.35" opacity="0.2" style="isolation: isolate"></rect><rect x="41.43" y="43.37" width="3.03" height="7.01" fill="#e6e6e6"></rect><polygon points="44.46 50.39 41.43 50.39 41.94 52.51 43.95 52.51 44.46 50.39" fill="#e6e6e6"></polygon><rect x="34.23" y="26.77" width="3.03" height="16.6" fill="#ccc"></rect><rect x="34.23" y="26.72" width="3.03" height="4.35" opacity="0.2" style="isolation: isolate"></rect><rect x="34.23" y="43.37" width="3.03" height="7.01" fill="#e6e6e6"></rect><polygon points="37.26 50.39 34.23 50.39 34.74 52.51 36.75 52.51 37.26 50.39" fill="#e6e6e6"></polygon><rect x="29.13" y="25.32" width="63.64" height="9.66"></rect><rect x="29.13" y="22.76" width="63.64" height="2.56" fill="#999"></rect><rect x="33.86" y="22.76" width="54.17" height="2.56" fill="#b3b3b3"></rect><path d="M25.92,1.5V44h1.7V22.76H94.26V44H96V1.5h-1.7V15.37H91.11V16.9a2.84,2.84,0,0,1-5.67,0V15.37H82.32V1.5h-1.7V19.73h-12V1.5h-1.7V15.37h-12V1.5h-1.7V19.73H41.32V1.5h-1.7V15.37H36.44V16.9a2.84,2.84,0,0,1-5.67,0V15.37H27.62V1.5Z" fill="#241f1c" fill-rule="evenodd"></path><circle cx="33.61" cy="17.55" r="2.55" fill="gray"></circle><circle cx="88.28" cy="17.55" r="2.55" fill="gray"></circle><path d="M24.94,59.66V54.8a.32.32,0,0,1,.09-.23.33.33,0,0,1,.47,0h0a.32.32,0,0,1,.09.23V59h2.32a.35.35,0,0,1,.24.1.3.3,0,0,1,0,.44l0,0a.36.36,0,0,1-.24.09Z" fill="#fff"></path><path d="M32.74,59.66h-3V57.39a.63.63,0,0,1,.19-.47.66.66,0,0,1,.46-.19h2v-1.6H30.06a.32.32,0,0,1-.23-.09.37.37,0,0,1-.1-.24.35.35,0,0,1,.33-.33h2.35a.68.68,0,0,1,.66.66v1.6a.63.63,0,0,1-.2.47.66.66,0,0,1-.46.19h-2V59h2.33a.33.33,0,0,1,0,.66Z" fill="#fff"></path><path d="M37.57,59.65h-.33a.32.32,0,0,1-.23-.09.37.37,0,0,1-.1-.24.35.35,0,0,1,.33-.33V56.82H34.93a.32.32,0,0,1-.23-.09.29.29,0,0,1-.1-.23V54.79a.29.29,0,0,1,.1-.23.32.32,0,0,1,.23-.09h2.64a.32.32,0,0,1,.23.09.29.29,0,0,1,.1.23v4.53a.35.35,0,0,1-.1.24A.32.32,0,0,1,37.57,59.65Zm-.32-3.49v-1h-2v1Z" fill="#fff"></path><path d="M39.4,59v-1.6a.66.66,0,0,1,.19-.46.63.63,0,0,1,.47-.2V54.8a.29.29,0,0,1,.1-.23.33.33,0,0,1,.23-.1h1.34a.33.33,0,0,1,.23.1.32.32,0,0,1,.09.23v1.93a.63.63,0,0,1,.47.2.58.58,0,0,1,.19.46V59a.63.63,0,0,1-.19.47.68.68,0,0,1-.47.19h-2a.64.64,0,0,1-.47-.21.66.66,0,0,1-.19-.46Zm1.32-3.86v1.6h.68v-1.6Zm-.66,2.26V59h2V57.39Z" fill="#fff"></path><path d="M47.55,54.81v4.85h-.88l-1.76-4v3.71a.33.33,0,0,1-.1.23.32.32,0,0,1-.23.09.36.36,0,0,1-.24-.09.32.32,0,0,1-.09-.23V54.5h.87l1.77,4V54.81a.35.35,0,0,1,.1-.24.37.37,0,0,1,.24-.1.33.33,0,0,1,.23.1A.36.36,0,0,1,47.55,54.81Z" fill="#fff"></path><path d="M2.15,60.89,2.69,62a.93.93,0,0,1,.11.49,1,1,0,0,1-.11.49l-.54,1.09a.62.62,0,0,1-.59.36.74.74,0,0,1-.35-.1A.85.85,0,0,1,1,64.06L.43,63a1.12,1.12,0,0,1-.11-.47A1.17,1.17,0,0,1,.43,62L1,60.91a.63.63,0,0,1,.59-.41A.61.61,0,0,1,2.15,60.89Zm-.75.24-.51,1a.85.85,0,0,0,0,.68l.52,1a.15.15,0,0,0,.15.1.2.2,0,0,0,.15-.1l.52-1a.66.66,0,0,0,.09-.31.61.61,0,0,0-.08-.3l-.51-1a.19.19,0,0,0-.16-.11.19.19,0,0,0-.16.11Z" fill="#fff"></path><path d="M3.94,63.68v-2.9A.29.29,0,0,1,4,60.6a.22.22,0,0,1,.18-.1.24.24,0,0,1,.24.24h0v2.91a.21.21,0,0,0,.08.17.22.22,0,0,0,.17.07h1a.24.24,0,0,0,.24-.24h0v-2.9A.29.29,0,0,1,6,60.57a.23.23,0,0,1,.19-.07.21.21,0,0,1,.14.1.25.25,0,0,1,.08.18v2.9a.73.73,0,0,1-.22.52.71.71,0,0,1-.52.22h-1a.75.75,0,0,1-.74-.74Z" fill="#fff"></path><path d="M7.56,61.2v-.7h2.49v.67a.25.25,0,0,1-.08.18.22.22,0,0,1-.17.07.29.29,0,0,1-.18-.07.24.24,0,0,1-.07-.18V61h-.5v3.15a.24.24,0,0,1-.23.25h0a.22.22,0,0,1-.17-.07.25.25,0,0,1-.08-.18V61h-.5v.18a.24.24,0,0,1-.24.24.24.24,0,0,1-.18-.07A.28.28,0,0,1,7.56,61.2Z" fill="#fff"></path><path d="M11.42,63.92h.75V61h-.74a.24.24,0,0,1-.25-.23v0a.28.28,0,0,1,.07-.17.24.24,0,0,1,.18-.07h1.24v3.39h.49v-1a.24.24,0,0,1,.07-.18.22.22,0,0,1,.17-.07.24.24,0,0,1,.25.23v1.29a.22.22,0,0,1-.07.17.24.24,0,0,1-.18.07h-2a.24.24,0,0,1-.25-.23v0a.22.22,0,0,1,.07-.17.24.24,0,0,1,.18-.07Z" fill="#fff"></path><path d="M2.15,98.58l.54,1.1a.93.93,0,0,1,.11.49,1,1,0,0,1-.11.49l-.54,1.09a.62.62,0,0,1-.59.36.62.62,0,0,1-.35-.1.85.85,0,0,1-.24-.26l-.54-1.09a1.17,1.17,0,0,1,0-1L1,98.56a.63.63,0,0,1,.59-.36A.61.61,0,0,1,2.15,98.58Zm-.75.24-.51,1a.67.67,0,0,0-.07.31.63.63,0,0,0,.07.3l.52,1a.15.15,0,0,0,.15.1.16.16,0,0,0,.15-.1l.52-1a.64.64,0,0,0,.08-.3.68.68,0,0,0-.08-.31l-.51-1a.19.19,0,0,0-.16-.11A.19.19,0,0,0,1.4,98.82Z" fill="#fff"></path><path d="M3.94,101.37V98.5A.29.29,0,0,1,4,98.32a.25.25,0,0,1,.42.17v2.91a.21.21,0,0,0,.08.17.22.22,0,0,0,.17.07h1a.24.24,0,0,0,.24-.24V98.5A.29.29,0,0,1,6,98.32a.24.24,0,0,1,.18-.07.22.22,0,0,1,.17.07.25.25,0,0,1,.08.18v2.9a.73.73,0,0,1-.22.52.71.71,0,0,1-.52.22h-1a.71.71,0,0,1-.52-.22.64.64,0,0,1-.22-.52Z" fill="#fff"></path><path d="M7.56,98.89v-.67h2.49v.67a.25.25,0,0,1-.08.18.22.22,0,0,1-.17.07.24.24,0,0,1-.25-.23v-.2h-.5v3.15a.24.24,0,0,1-.23.25h0a.22.22,0,0,1-.17-.07.25.25,0,0,1-.08-.18V98.71h-.5v.18a.25.25,0,0,1-.42.17A.28.28,0,0,1,7.56,98.89Z" fill="#fff"></path><path d="M13.42,102.1H11.18v-1.69a.48.48,0,0,1,.15-.36.5.5,0,0,1,.35-.14h1.49v-1.2H11.41a.22.22,0,0,1-.17-.07.24.24,0,0,1-.07-.18.24.24,0,0,1,.24-.24h1.76a.5.5,0,0,1,.35.14.47.47,0,0,1,.15.35v1.2a.52.52,0,0,1-.5.5H11.68v1.2h1.74a.24.24,0,0,1,.25.23.27.27,0,0,1-.08.19A.22.22,0,0,1,13.42,102.1Z" fill="#fff"></path><path d="M24.9,96.5h.63V94.05h-.62a.2.2,0,0,1-.15-.06.2.2,0,0,1-.06-.14.21.21,0,0,1,.21-.21h1V96.5h.41v-.85a.21.21,0,0,1,.21-.21.2.2,0,0,1,.14.06.2.2,0,0,1,.06.15v1.06a.22.22,0,0,1-.2.2H24.9a.21.21,0,0,1-.21-.21.2.2,0,0,1,.06-.14A.2.2,0,0,1,24.9,96.5Z" fill="#fff"></path><path d="M29.59,96.88H27.72V95.5a.41.41,0,0,1,.41-.41h1.25v-1H27.91a.21.21,0,0,1-.2-.2.2.2,0,0,1,.06-.15.2.2,0,0,1,.14-.06h1.47a.41.41,0,0,1,.41.41h0v1a.42.42,0,0,1-.12.3.44.44,0,0,1-.29.11H28.13v1h1.46a.2.2,0,0,1,.14.06.2.2,0,0,1,.06.15.22.22,0,0,1-.2.2Z" fill="#fff"></path><path d="M32.82,93.85v.76L32,96.73a.2.2,0,0,1-.2.16.24.24,0,0,1-.2-.16l-.83-2.12v-.76a.2.2,0,0,1,.06-.15.2.2,0,0,1,.14-.06.21.21,0,0,1,.21.21v.65l.62,1.59.63-1.59v-.67a.2.2,0,0,1,.06-.15.2.2,0,0,1,.14-.06.21.21,0,0,1,.21.21Z" fill="#fff"></path><path d="M36.1,93.64h.69a.2.2,0,0,1,.14.06.2.2,0,0,1,.06.15.18.18,0,0,1-.07.15.16.16,0,0,1-.13.06h-.65a.2.2,0,0,0-.17.09l-.58.74a.34.34,0,0,0-.07.24v1.14a.2.2,0,0,0,.06.14.18.18,0,0,0,.15.07h.79a.25.25,0,0,0,.21-.21v-.44H36.1a.2.2,0,0,1-.15-.06.27.27,0,0,1-.05-.15.24.24,0,0,1,.05-.14.2.2,0,0,1,.15-.06h.84v.85a.58.58,0,0,1-.18.43.6.6,0,0,1-.44.19h-.83a.53.53,0,0,1-.44-.19.58.58,0,0,1-.18-.43V95.14a.8.8,0,0,1,.16-.52l.6-.77a.7.7,0,0,1,.19-.15.5.5,0,0,1,.24-.06Z" fill="#fff"></path><path d="M40,93.85v3h-.55l-1.13-2.48v2.31a.2.2,0,0,1-.06.15.2.2,0,0,1-.14.06.21.21,0,0,1-.21-.21v-3h.55l1.1,2.52V93.85a.21.21,0,0,1,.42,0Z" fill="#fff"></path><path d="M41.15,93.64H42a.57.57,0,0,1,.31.1.67.67,0,0,1,.22.25l.41.82a1,1,0,0,1,.11.46.93.93,0,0,1-.12.46l-.41.81a.59.59,0,0,1-.22.25.64.64,0,0,1-.33.1h-.78a.23.23,0,0,1-.21-.21.21.21,0,0,1,.21-.21h.17V94.06h-.21A.18.18,0,0,1,41,94a.17.17,0,0,1,0-.14.2.2,0,0,1,0-.15.2.2,0,0,1,.15-.06Zm.62.42V96.5h.14a.24.24,0,0,0,.21-.14l.41-.8a.64.64,0,0,0,.07-.27.54.54,0,0,0-.06-.25l-.42-.84a.22.22,0,0,0-.22-.12Z" fill="#fff"></path><path d="M50.6,96.5h.95v-1H50.32V93.64h1.44a.21.21,0,0,1,.21.21.2.2,0,0,1-.06.14.2.2,0,0,1-.15.06h-1v1h.83a.45.45,0,0,1,.41.41v1a.39.39,0,0,1-.13.29.36.36,0,0,1-.28.12h-1a.63.63,0,0,1-.27-.06l-.31-.13a.21.21,0,0,1-.07-.34.16.16,0,0,1,.13-.06.38.38,0,0,1,.15,0l.27.11a.17.17,0,0,0,.1,0Z" fill="#fff"></path><path d="M54.94,93.85v.76l-.84,2.12a.2.2,0,0,1-.2.16.24.24,0,0,1-.2-.16l-.83-2.12v-.76a.2.2,0,0,1,.06-.15.2.2,0,0,1,.14-.06.21.21,0,0,1,.21.21v.65l.62,1.59.63-1.59v-.67a.2.2,0,0,1,.06-.15.2.2,0,0,1,.14-.06.21.21,0,0,1,.21.21Z" fill="#fff"></path><path d="M109.67,60.89l.54,1.1a1,1,0,0,1,.11.51,1,1,0,0,1-.11.49l-.54,1.09a.62.62,0,0,1-.59.36.74.74,0,0,1-.35-.1.85.85,0,0,1-.24-.26L108,63a1.15,1.15,0,0,1,0-1l.54-1.1a.63.63,0,0,1,.59-.36.62.62,0,0,1,.59.36Zm-.75.24-.51,1a.63.63,0,0,0-.07.3.67.67,0,0,0,.07.31l.52,1a.15.15,0,0,0,.15.1.18.18,0,0,0,.15-.1l.52-1a.68.68,0,0,0,.08-.31.61.61,0,0,0-.08-.3l-.51-1A.17.17,0,0,0,109,61,.14.14,0,0,0,108.92,61.13Z" fill="#fff"></path><path d="M111.46,63.68v-2.9a.29.29,0,0,1,.07-.18.25.25,0,0,1,.42.17v2.91a.21.21,0,0,0,.08.17.22.22,0,0,0,.17.07h1a.24.24,0,0,0,.24-.24v-2.9a.29.29,0,0,1,.07-.18.24.24,0,0,1,.18-.07.22.22,0,0,1,.17.07.25.25,0,0,1,.08.18v2.9a.73.73,0,0,1-.22.52.71.71,0,0,1-.52.22h-1A.75.75,0,0,1,111.46,63.68Z" fill="#fff"></path><path d="M115.08,61.2v-.7h2.49v.67a.25.25,0,0,1-.08.18.2.2,0,0,1-.17.15.29.29,0,0,1-.18-.07.24.24,0,0,1-.07-.18v-.18h-.5v3.15a.24.24,0,0,1-.23.25h0a.22.22,0,0,1-.17-.07.25.25,0,0,1-.08-.18V61h-.5v.18a.24.24,0,0,1-.24.24.24.24,0,0,1-.18-.07A.28.28,0,0,1,115.08,61.2Z" fill="#fff"></path><path d="M120.32,64.17v-1h-1.48v-2.4a.22.22,0,0,1,.07-.17.25.25,0,0,1,.18-.08.23.23,0,0,1,.17.08.22.22,0,0,1,.07.17v1.87h1V61.2a.22.22,0,0,1,.07-.17.23.23,0,0,1,.17-.08.25.25,0,0,1,.18.08.22.22,0,0,1,.07.17v1.44a.28.28,0,0,1,.25.25.25.25,0,0,1-.08.18.28.28,0,0,1-.17.07v1a.22.22,0,0,1-.07.17.24.24,0,0,1-.18.07.24.24,0,0,1-.24-.24Z" fill="#fff"></path><path d="M109.67,98.58l.54,1.1a.93.93,0,0,1,.11.49,1,1,0,0,1-.11.49l-.54,1.09a.66.66,0,0,1-.94.26.85.85,0,0,1-.24-.26l-.54-1.09a1.17,1.17,0,0,1,0-1l.54-1.1a.63.63,0,0,1,.59-.36A.61.61,0,0,1,109.67,98.58Zm-.75.24-.51,1a.67.67,0,0,0-.07.31.63.63,0,0,0,.07.3l.52,1a.16.16,0,0,0,.3,0l.52-1a.64.64,0,0,0,.08-.3.68.68,0,0,0-.08-.31l-.51-1a.17.17,0,0,0-.22-.1A.14.14,0,0,0,108.92,98.82Z" fill="#fff"></path><path d="M111.46,101.37V98.5a.29.29,0,0,1,.07-.18.25.25,0,0,1,.42.17v2.91a.21.21,0,0,0,.08.17.22.22,0,0,0,.17.07h1a.24.24,0,0,0,.24-.24V98.5a.29.29,0,0,1,.07-.18.24.24,0,0,1,.18-.07.22.22,0,0,1,.17.07.25.25,0,0,1,.08.18v2.9a.73.73,0,0,1-.22.52.71.71,0,0,1-.52.22h-1a.71.71,0,0,1-.52-.22.64.64,0,0,1-.22-.52Z" fill="#fff"></path><path d="M115.08,98.89v-.67h2.49v.67a.25.25,0,0,1-.08.18.22.22,0,0,1-.17.07.24.24,0,0,1-.25-.23v-.2h-.5v3.15a.24.24,0,0,1-.23.25h0a.22.22,0,0,1-.17-.07.25.25,0,0,1-.08-.18V98.71h-.5v.18a.25.25,0,0,1-.42.17A.28.28,0,0,1,115.08,98.89Z" fill="#fff"></path><path d="M121.19,98.71v.92a.68.68,0,0,1-.2.52.72.72,0,0,1,.2.5v1a.46.46,0,0,1-.14.35.5.5,0,0,1-.35.14H119a.24.24,0,0,1-.18-.07.25.25,0,0,1,0-.34h0a.25.25,0,0,1,.18-.08h1.73v-1a.22.22,0,0,0-.07-.17.23.23,0,0,0-.18-.08h-1a.22.22,0,0,1-.17-.07.25.25,0,0,1,.17-.42h1a.28.28,0,0,0,.17-.07.25.25,0,0,0,.08-.18v-1h-1.76a.24.24,0,0,1-.18-.07.29.29,0,0,1-.07-.18.28.28,0,0,1,.07-.17.24.24,0,0,1,.18-.07h1.76a.48.48,0,0,1,.34.14.47.47,0,0,1,.15.35Z" fill="#fff"></path><path d="M48.24,88.58h.95v-1H48V85.75H49.4a.22.22,0,0,1,.2.2.2.2,0,0,1-.06.15.2.2,0,0,1-.14.06h-1v1h.82a.41.41,0,0,1,.41.41h0v1a.41.41,0,0,1-.41.41h-.95a.64.64,0,0,1-.27-.07l-.31-.13a.18.18,0,0,1-.12-.19.24.24,0,0,1,0-.14.17.17,0,0,1,.14-.07h.14l.27.12h.1Z" fill="#fff"></path><path d="M52.59,86v.75l-.84,2.13a.21.21,0,0,1-.2.15.2.2,0,0,1-.2-.15l-.83-2.13V86a.2.2,0,0,1,0-.15.2.2,0,0,1,.15-.06.22.22,0,0,1,.21.21v.66l.62,1.6.63-1.59V86a.2.2,0,0,1,0-.15.21.21,0,0,1,.36.15Z" fill="#fff"></path><path d="M55.39,86.16H53.94v1h.62a.2.2,0,0,1,.15.06.2.2,0,0,1,.06.14.21.21,0,0,1-.21.21h-.62v1h1.45a.21.21,0,0,1,.21.21.2.2,0,0,1-.06.14.2.2,0,0,1-.15.06H53.53V85.75h1.86a.21.21,0,0,1,.21.21.2.2,0,0,1-.06.14A.2.2,0,0,1,55.39,86.16Z" fill="#fff"></path><path d="M58.61,86v3h-.55L57,86.5v2.32a.2.2,0,0,1-.06.14.22.22,0,0,1-.3,0,.24.24,0,0,1-.05-.14v-3h.54l1.11,2.51V86a.21.21,0,0,1,.21-.21.2.2,0,0,1,.14.06A.16.16,0,0,1,58.61,86Z" fill="#fff"></path><line x1="64.71" y1="86.64" x2="64.71" y2="92.07" fill="none"></line><rect x="64.71" y="86.64" width="2.87" height="5.51" fill="#f2f2f2"></rect><path d="M64.7,90.2s.35.48.32.65.11.41,0,.51H64.7Z" fill="#22b573" fill-opacity="0.7"></path><rect x="65.81" y="89.02" width="0.72" height="0.64" fill="#fff"></rect><rect x="65.79" y="89.02" width="0.04" height="0.64" fill="#b3b3b3"></rect><polygon points="64.95 91.36 65.5 91.36 65.42 90.64 65.03 90.64 64.95 91.36" fill="#d1c690"></polygon><path d="M65.17,90.68h0a1.88,1.88,0,0,1,.12-.45c.06-.16.59-.42.52-.62h0c.07.23-.46.5-.52.67a1.62,1.62,0,0,0-.12.43h0Z" fill="#d1c690"></path><polygon points="67.27 87.35 66.72 87.35 66.8 88.07 67.19 88.07 67.27 87.35" fill="#d1c690"></polygon><path d="M66.05,89.31h0a2,2,0,0,0,.87-1.41h0A1.92,1.92,0,0,1,66,89.39Z" fill="#d1c690"></path><path d="M66,89.66s0-.26-.23-.28v.28Z" fill="#d1c690"></path><path d="M66.32,89.34s-.23.12-.26,0a.33.33,0,0,1,0-.18s.24.14.24.14Z" fill="#d1c690"></path><path d="M65.77,89.61c.06.2-.46.46-.52.62a1.16,1.16,0,0,0-.12.45h0a1.88,1.88,0,0,1,.12-.45C65.31,90.07,65.84,89.81,65.77,89.61Z" fill="#9d956c"></path><polygon points="66.68 87.35 66.72 87.35 66.8 88.07 66.76 88.07 66.68 87.35" fill="#9d956c"></polygon><path d="M66,89.27a1.82,1.82,0,0,0,.86-1.42h0A1.78,1.78,0,0,1,66,89.27Z" fill="#9d956c"></path><path d="M65.76,89.38v.28h0Z" fill="#9d956c"></path><path d="M66,89.2c-.06,0-.06.09,0,.17h0v-.18Z" fill="#9d956c"></path><rect x="67.54" y="87.75" width="0.04" height="3.17" fill="#fff" opacity="0.5" style="isolation: isolate"></rect><path d="M67.58,87.36H64.7v4h2.88Z" fill="#f2f2f2" opacity="0.5" style="isolation: isolate"></path><path d="M67.09,87.4h.23c.11,0,.2,0,.2.07v3.64h0V87.84c0-.34-.08-.38-.15-.38h-.21c-.13,0-.13-.06,0-.06Z" fill="#fff" opacity="0.55" style="isolation: isolate"></path><path d="M64.87,91.24s-.11,0-.11-.07V87.56h0v2.69c0,.45.06,1,.06,1Z" opacity="0.03" style="isolation: isolate"></path><path d="M64.7,86.64v.58h.39a.24.24,0,0,1,.21.14h2.28V86.6H64.71" fill="#d1c690"></path><rect x="67.54" y="86.61" width="0.04" height="0.75" fill="#fff" opacity="0.5" style="isolation: isolate"></rect><path d="M64.7,92.15h2.88v-.8H65a.22.22,0,0,1-.2.14H64.7v.62" fill="#d1c690"></path><rect x="67.54" y="91.35" width="0.04" height="0.8" fill="#fff" opacity="0.5" style="isolation: isolate"></rect><path d="M66.32,101.32h.57v-.6h-.75v-1.1H67a.06.06,0,1,1,.09.09.11.11,0,0,1,0,.08h-.71v.71h.5a.28.28,0,0,1,.17.07.24.24,0,0,1,.07.18v.6a.24.24,0,0,1-.07.18.28.28,0,0,1-.17.07h-.57a.43.43,0,0,1-.16,0l-.19-.08a.12.12,0,0,1-.07-.11.14.14,0,0,1,0-.09h.17l.16.07a.06.06,0,0,0,.06,0Z" fill="#fff"></path><path d="M68.91,99.75v.45l-.5,1.28a.12.12,0,0,1-.12.09.13.13,0,0,1-.12-.09l-.5-1.28v-.45a.14.14,0,0,1,0-.09h.17a.14.14,0,0,1,0,.09v.4l.37,1,.38-1v-.4a.14.14,0,0,1,0-.09h.18a.14.14,0,0,1,0,.09Z" fill="#fff"></path><path d="M102.32,101.32h.57v-.6h-.75v-1.1H103a.06.06,0,1,1,.09.09.11.11,0,0,1,0,.08h-.71v.71h.5a.28.28,0,0,1,.17.07.24.24,0,0,1,.07.18v.6a.24.24,0,0,1-.07.18.28.28,0,0,1-.17.07h-.57a.43.43,0,0,1-.16,0l-.19-.08a.12.12,0,0,1-.07-.11.14.14,0,0,1,0-.09h.17l.16.07a.06.06,0,0,0,.06,0Z" fill="#fff"></path><path d="M104.91,99.75v.45l-.5,1.28a.12.12,0,0,1-.12.09.13.13,0,0,1-.12-.09l-.5-1.28v-.45a.14.14,0,0,1,0-.09h.17a.14.14,0,0,1,0,.09v.4l.37,1,.38-1v-.4a.14.14,0,0,1,0-.09h.18A.12.12,0,0,1,104.91,99.75Z" fill="#fff"></path><path d="M66.09,118.57h-.87v.6h.37a.14.14,0,0,1,.09,0,.11.11,0,0,1,0,.08.12.12,0,0,1-.11.13h-.35v.6h.87a.14.14,0,0,1,.09,0,.13.13,0,0,1,0,.18.11.11,0,0,1-.08,0H65v-2h1.2a.12.12,0,0,1,0,.17h-.09Z" fill="#fff"></path><path d="M68,118.5v1.82h-.33L67,118.81v1.39a.14.14,0,0,1,0,.09h-.17a.14.14,0,0,1,0-.09v-1.83h.33l.66,1.51V118.5a.14.14,0,0,1,0-.09H68A.14.14,0,0,1,68,118.5Z" fill="#fff"></path><path d="M68.6,120.1l.5-1.68a.12.12,0,0,1,.12-.1.1.1,0,0,1,.11.08l.49,1.71h0a.11.11,0,0,1-.1.12h0a.12.12,0,0,1-.12-.09l-.1-.33h-.56l-.11.35h-.07a.13.13,0,0,1-.13-.13h0Zm.62-1.21-.21.71h.41Z" fill="#fff"></path><path d="M72.32,118.32h1.09a.14.14,0,0,1,0,.09.11.11,0,0,1-.1.12h-.39V120h.4a.06.06,0,0,1,.09.09.11.11,0,0,1-.1.12h-1a.12.12,0,0,1-.13-.11h0a.06.06,0,0,1,.09-.09h.37v-1.45h-.33a.12.12,0,0,1-.13-.11h0a.14.14,0,0,1,0-.09h.13Z" fill="#fff"></path><path d="M75.23,118.5v1.82h-.34l-.66-1.51v1.39a.11.11,0,0,1-.1.12h0a.06.06,0,1,1-.09-.09V118.4h.3l.67,1.51V118.5a.14.14,0,0,1,0-.09h.09a.13.13,0,0,1,.13.13Z" fill="#fff"></path><path d="M75.91,120h.41v-1.45h-.4a.14.14,0,0,1-.09,0,.11.11,0,0,1,0-.08.13.13,0,0,1,.13-.13h.61v1.7h.25v-.56a.14.14,0,0,1,0-.09H77a.14.14,0,0,1,0,.09v.63a.06.06,0,0,1-.09.09h-1a.12.12,0,0,1-.12-.12h0a.11.11,0,0,1,0-.08.14.14,0,0,1,.09,0Z" fill="#fff"></path><path d="M79.49,118.32h1.08a.14.14,0,0,1,0,.09.14.14,0,0,1,0,.09.11.11,0,0,1-.08,0h-.37V120h.37a.11.11,0,0,1,.08,0,.14.14,0,0,1,0,.09.14.14,0,0,1,0,.09.11.11,0,0,1-.08,0h-1a.11.11,0,0,1-.12-.1v0a.06.06,0,1,1,.09-.09h.38v-1.45h-.38a.11.11,0,0,1-.12-.1v0a.14.14,0,0,1,0-.09A.2.2,0,0,1,79.49,118.32Z" fill="#fff"></path><path d="M82.42,118.5v1.82h-.33l-.66-1.51v1.39a.12.12,0,0,1-.12.12h0a.11.11,0,0,1-.08,0,.14.14,0,0,1,0-.09V118.4h.33l.66,1.51V118.5a.14.14,0,0,1,0-.09h.17a.14.14,0,0,1,0,.09Z" fill="#fff"></path><path d="M84.11,120.27H83v-.85a.24.24,0,0,1,.23-.25H84v-.6H83.1a.15.15,0,0,1-.12-.12.14.14,0,0,1,0-.09.11.11,0,0,1,.08,0h.88a.25.25,0,0,1,.18.08.22.22,0,0,1,.07.17v.6a.24.24,0,0,1-.07.18.29.29,0,0,1-.18.07H83.2v.6h.87a.15.15,0,0,1,.12.12.14.14,0,0,1,0,.09A.11.11,0,0,1,84.11,120.27Z" fill="#fff"></path><path d="M86.69,118.32h1.08a.14.14,0,0,1,0,.09.14.14,0,0,1,0,.09.11.11,0,0,1-.08,0h-.37V120h.38a.11.11,0,0,1,.08,0,.14.14,0,0,1,0,.09.14.14,0,0,1,0,.09.11.11,0,0,1-.08,0h-1a.11.11,0,0,1-.12-.1v0a.06.06,0,0,1,.09-.09h.38v-1.45h-.38a.11.11,0,0,1-.12-.1v0a.14.14,0,0,1,0-.09A.2.2,0,0,1,86.69,118.32Z" fill="#fff"></path><path d="M89.62,118.5v1.82h-.3l-.66-1.51v1.39a.14.14,0,0,1,0,.09h-.17a.14.14,0,0,1,0-.09v-1.83h.33l.66,1.51V118.5a.14.14,0,0,1,0-.09h.17a.14.14,0,0,1,0,.09Z" fill="#fff"></path><path d="M91.43,118.57V119a.32.32,0,0,1-.1.26.39.39,0,0,1,.1.25V120a.24.24,0,0,1-.07.18.29.29,0,0,1-.18.07h-.86a.11.11,0,0,1-.08,0,.14.14,0,0,1,0-.09.15.15,0,0,1,.12-.12h.87v-.56a.14.14,0,0,0,0-.09h-.58a.06.06,0,0,1-.09-.09.11.11,0,0,1,0-.08h.59a.14.14,0,0,0,.09,0,.11.11,0,0,0,0-.08v-.48h-1a.11.11,0,0,1,0-.08.06.06,0,0,1,.09-.09h.87a.25.25,0,0,1,.18.08.22.22,0,0,1,.07.17Z" fill="#fff"></path><path d="M93.92,118.32H95a.14.14,0,0,1,0,.09.11.11,0,0,1-.1.12h-.39V120h.37a.06.06,0,0,1,.09.09.11.11,0,0,1-.1.12h-1a.11.11,0,0,1-.08,0,.14.14,0,0,1,0-.09.14.14,0,0,1,0-.09.11.11,0,0,1,.08,0h.46v-1.45h-.48a.14.14,0,0,1,0-.09.14.14,0,0,1,0-.09h.08Z" fill="#fff"></path><path d="M96.85,118.5v1.82h-.33l-.66-1.51v1.39a.14.14,0,0,1,0,.09h-.17a.14.14,0,0,1,0-.09v-1.83H96l.66,1.51V118.5a.13.13,0,0,1,.13-.13.06.06,0,1,1,.09.09Z" fill="#fff"></path><path d="M98.23,120.14v-.51h-.74V118.5a.12.12,0,0,1,.11-.13h0a.13.13,0,0,1,.13.13v.93h.49v-.72a.11.11,0,0,1,.09-.21h0a.06.06,0,0,1,.09.09v.72a.11.11,0,0,1,.08,0,.14.14,0,0,1,0,.09.15.15,0,0,1-.12.12V120a.14.14,0,0,1,0,.09h-.09a.12.12,0,0,1-.12-.12h0Z" fill="#fff"></path><path d="M102.09,118.57h-.87v.6h.37a.14.14,0,0,1,.09,0,.11.11,0,0,1,0,.08.12.12,0,0,1-.11.13h-.38v.6h.87a.14.14,0,0,1,.09,0,.13.13,0,0,1,0,.18.11.11,0,0,1-.08,0H101v-2h1.2a.12.12,0,0,1,0,.17h-.09Z" fill="#fff"></path><path d="M104,118.5v1.82h-.33l-.66-1.51v1.39a.14.14,0,0,1,0,.09h-.17a.14.14,0,0,1,0-.09v-1.83h.33l.66,1.51V118.5a.14.14,0,0,1,0-.09H104A.14.14,0,0,1,104,118.5Z" fill="#fff"></path><path d="M105.83,119.67v.11a.47.47,0,0,1-.47.49h-.78v-2h.74a.47.47,0,0,1,.35.15.5.5,0,0,1,.14.35v.1a.48.48,0,0,1-.17.37.52.52,0,0,1,.17.38Zm-.25-.75v-.1a.25.25,0,0,0-.08-.18.22.22,0,0,0-.17-.07h-.5v.6h.5A.28.28,0,0,0,105.58,118.92Zm0,.86v-.11a.28.28,0,0,0-.25-.25h-.5v.6h.5a.22.22,0,0,0,.17-.07A.23.23,0,0,0,105.58,119.78Z" fill="#fff"></path><circle cx="8.5" cy="8.51" r="4.81" fill="none" stroke="#ccc" stroke-linecap="square" stroke-linejoin="round" stroke-width="1.72"></circle><circle cx="113.39" cy="8.51" r="4.81" fill="none" stroke="#ccc" stroke-linecap="square" stroke-linejoin="round" stroke-width="1.72"></circle><circle cx="113.39" cy="113.39" r="4.81" fill="none" stroke="#ccc" stroke-linecap="square" stroke-linejoin="round" stroke-width="1.72"></circle><circle cx="8.5" cy="113.39" r="4.81" fill="none" stroke="#ccc" stroke-linecap="square" stroke-linejoin="round" stroke-width="1.72"></circle></svg> 